<svg width="325" height="325" viewBox="0 0 325 325" fill="none" xmlns="http://www.w3.org/2000/svg">
<g clip-path="url(#clip0_18_325)">
<rect width="880" height="972" transform="translate(-482 -136)" fill="#1E1E1E"/>
<path d="M158.062 163.551C157.237 165.206 156.414 166.749 155.593 168.179C149.752 167.51 143.614 167.141 137.179 167.141C127.849 167.141 119.864 167.899 112.908 169.296C112.584 166.259 112.429 162.833 112.437 159.041C112.454 150.7 113.249 141.015 114.474 130.583C115.863 118.745 117.73 106.446 119.587 94.2175C121.057 84.5367 122.521 74.8998 123.735 65.5706C125.081 55.2281 126.083 45.4702 126.318 37.0503C126.549 28.7619 126.06 21.2189 124.08 15.6026C123.073 12.7455 121.559 10.0341 119.224 8.03587C116.782 5.94634 113.786 4.9353 110.481 5.00323C104.373 5.12879 97.3879 8.92903 89.5223 15.2357L89.4139 15.3227L89.3104 15.4155C68.5551 34.0431 61.1546 63.3684 60.3056 91.6351C59.4527 120.031 65.1632 148.483 71.8372 166.685C75.0531 175.456 77.4103 181.469 79.3802 185.332C79.4362 185.442 79.4924 185.551 79.5489 185.66C77.6063 187.386 75.7763 189.171 74.0118 190.987C71.5765 193.493 69.2791 196.028 66.9888 198.555C57.4548 209.076 48.0421 219.463 29.3016 227.054L27.7383 227.688L26.878 229.139C10.2133 257.246 18.1154 292.579 41.6084 306.659C53.5758 313.832 69.2105 316.933 85.6553 318.334C99.9096 319.548 115.317 319.515 130.186 319.484C132.533 319.479 134.866 319.474 137.179 319.474C141.3 319.474 145.739 319.556 150.407 319.642C164.625 319.905 180.97 320.207 196.954 318.351C218.319 315.871 240.032 309.473 256.657 293.376L257.303 292.75L257.691 291.939C267.814 270.746 263.314 249.866 256.696 234.765C253.373 227.183 249.454 220.9 246.371 216.514C244.826 214.316 243.482 212.58 242.512 211.382C242.027 210.783 241.635 210.317 241.358 209.993C241.22 209.831 241.11 209.705 241.031 209.616C241.006 209.587 240.984 209.562 240.965 209.541C240.945 209.517 240.921 209.488 240.893 209.455C240.81 209.358 240.695 209.224 240.546 209.054C240.249 208.715 239.818 208.236 239.256 207.637C238.13 206.439 236.473 204.76 234.284 202.761C229.907 198.765 223.391 193.479 214.737 188.205C209.125 184.785 202.615 181.37 195.21 178.317C195.228 178.293 195.246 178.27 195.264 178.247C212.87 155.567 240.348 109.986 254.153 72.042C257.617 62.5228 260.268 53.356 261.668 45.0625C263.057 36.8367 263.282 29.0926 261.553 22.6101C259.772 15.929 255.85 10.4641 249.179 7.6048C242.785 4.86452 234.615 4.84925 224.861 7.1315C219.419 8.40482 214.961 12.3176 211.283 17.1008C207.553 21.9507 204.177 28.2792 201.049 35.4281C194.793 49.7307 189.131 68.2747 183.63 87.1349C182.679 90.3981 181.732 93.6718 180.786 96.9394C176.226 112.699 171.708 128.316 166.924 141.917C164.041 150.111 161.104 157.45 158.062 163.551Z" fill="url(#paint0_linear_18_325)" stroke="url(#paint1_linear_18_325)" stroke-width="10"/>
<path d="M238.767 214.62C238.767 214.62 271.767 252.906 254.267 292.12C223.267 322.136 178.767 317.094 136.766 317.094C102.569 317.094 102.713 317.138 128.267 315.197C130.766 315.008 201.766 319.07 211.766 270.658C224.306 209.951 192.767 190.294 187.767 184C214.767 192.23 238.767 214.62 238.767 214.62Z" fill="url(#paint2_linear_18_325)" fill-opacity="0.5"/>
<path d="M122 34.0768C122 61.5244 118.939 66.8213 118.428 69.7105C117.918 72.5998 71.9964 55.2644 73.0168 46.1153C78.4009 32.6325 96.5047 10 111.302 10C120.257 11.4448 121.771 20.1125 122 34.0768Z" fill="#FFE354"/>
<path d="M260 28.4997C257.081 58.2108 245.188 84.4588 244.566 82.9974C243.945 81.5361 196.095 68.8907 197.514 58.9894C199.735 43.4898 213.468 6.99171 232.07 6.99483C242.404 6.99642 260.33 13.3779 260 28.4997Z" fill="#FFE354"/>
<path d="M210.5 149.5C186.397 183 187.639 177.573 187.722 181.831C177.962 180.793 209.679 127.619 224.742 97.2793C239.806 66.9397 250.155 34.8131 257.714 22.3311C273.333 22.9178 234.603 116 210.5 149.5Z" fill="#C8C4C4" fill-opacity="0.5"/>
<path opacity="0.5" d="M109.583 124.084C104.013 167.726 107.507 171.642 108.5 176.053C98.8166 177.921 100.69 111.427 104.817 79.0385C108.943 46.6504 114.262 26.9935 117.261 13.2743C127.729 34.8298 115.154 80.4428 109.583 124.084Z" fill="#D7D7D7" fill-opacity="0.55"/>
<path d="M91.4131 239.387L91.4348 239.398L91.4542 239.407L91.4545 239.407L91.4545 239.407L91.4553 239.408L91.4566 239.408L91.4608 239.41L91.498 239.429C91.5336 239.447 91.5903 239.475 91.6664 239.514C91.8187 239.592 92.0486 239.711 92.3427 239.869C92.9317 240.184 93.774 240.652 94.7645 241.248C96.7618 242.451 99.2866 244.133 101.543 246.103C103.849 248.118 105.601 250.2 106.409 252.147C107.127 253.878 107.107 255.437 105.911 257.153C102.508 262.034 98.0521 264.566 93.1774 265.054C88.2289 265.548 82.461 263.967 76.5537 259.849C64.9449 251.757 61.9005 237.426 68.4496 228.031C68.8565 227.448 69.21 226.878 69.5148 226.323C69.9487 226.659 70.4134 227.008 70.9107 227.371C74.9347 230.307 81.3215 234.276 91.4131 239.387Z" fill="url(#paint3_linear_18_325)" stroke="url(#paint4_linear_18_325)" stroke-width="7"/>
<path d="M178.152 241.258L178.131 241.269L178.112 241.278L178.112 241.278L178.112 241.278L178.11 241.279L178.106 241.281L178.068 241.3C178.033 241.318 177.976 241.347 177.9 241.387C177.749 241.465 177.52 241.586 177.228 241.745C176.642 242.063 175.805 242.533 174.819 243.131C172.832 244.336 170.315 246.016 168.052 247.971C165.738 249.971 163.964 252.028 163.125 253.929C162.377 255.625 162.404 257.032 163.447 258.529C166.602 263.055 170.826 265.366 175.561 265.722C180.39 266.086 186.096 264.433 192.003 260.315C203.687 252.171 206.79 238.346 200.749 229.679C200.405 229.185 200.101 228.701 199.835 228.226C199.411 228.553 198.958 228.892 198.474 229.244C194.477 232.154 188.142 236.114 178.152 241.258Z" fill="url(#paint5_linear_18_325)" stroke="url(#paint6_linear_18_325)" stroke-width="7"/>
<g filter="url(#filter0_d_18_325)">
<path d="M197.518 194.858C203.125 192.393 213.393 191.381 209.606 207.048" stroke="white" stroke-width="23" stroke-linecap="round"/>
<path d="M227.037 183.208C223.627 188.584 215.364 195.396 209.594 179.631" stroke="white" stroke-width="23" stroke-linecap="round"/>
<path d="M224.921 208.454C222.15 202.93 220.678 192.866 236.956 196.805" stroke="white" stroke-width="23" stroke-linecap="round"/>
<path d="M197.518 194.858C203.125 192.393 213.393 191.381 209.606 207.048" stroke="#A90000" stroke-width="9" stroke-linecap="round"/>
<path d="M226.144 179.121C223.126 184.727 215.371 192.111 208.49 176.798" stroke="#A90000" stroke-width="9" stroke-linecap="round"/>
<path d="M224.921 208.454C222.15 202.93 220.678 192.866 236.956 196.805" stroke="#A90000" stroke-width="9" stroke-linecap="round"/>
</g>
</g>
<defs>
<filter id="filter0_d_18_325" x="184.015" y="168.128" width="66.4438" height="57.8291" filterUnits="userSpaceOnUse" color-interpolation-filters="sRGB">
<feFlood flood-opacity="0" result="BackgroundImageFix"/>
<feColorMatrix in="SourceAlpha" type="matrix" values="0 0 0 0 0 0 0 0 0 0 0 0 0 0 0 0 0 0 127 0" result="hardAlpha"/>
<feOffset dy="4"/>
<feGaussianBlur stdDeviation="1"/>
<feComposite in2="hardAlpha" operator="out"/>
<feColorMatrix type="matrix" values="0 0 0 0 0 0 0 0 0 0 0 0 0 0 0 0 0 0 0.25 0"/>
<feBlend mode="normal" in2="BackgroundImageFix" result="effect1_dropShadow_18_325"/>
<feBlend mode="normal" in="SourceGraphic" in2="effect1_dropShadow_18_325" result="shape"/>
</filter>
<linearGradient id="paint0_linear_18_325" x1="140.816" y1="10" x2="147.5" y2="325" gradientUnits="userSpaceOnUse">
<stop offset="0.20868" stop-color="#A90000"/>
<stop offset="0.67743" stop-color="white"/>
</linearGradient>
<linearGradient id="paint1_linear_18_325" x1="168.311" y1="10" x2="168.311" y2="314.839" gradientUnits="userSpaceOnUse">
<stop stop-color="#FFE354"/>
<stop offset="0.473958" stop-color="#A87A06"/>
<stop offset="1" stop-color="#FFE354"/>
</linearGradient>
<linearGradient id="paint2_linear_18_325" x1="184.692" y1="184" x2="184.692" y2="317.413" gradientUnits="userSpaceOnUse">
<stop stop-color="#A90000" stop-opacity="0.04"/>
<stop offset="0.493735" stop-color="#EBEBEB"/>
</linearGradient>
<linearGradient id="paint3_linear_18_325" x1="91.215" y1="234.352" x2="72.4576" y2="261.26" gradientUnits="userSpaceOnUse">
<stop offset="0.0472221" stop-color="#222222"/>
<stop offset="1" stop-color="white" stop-opacity="0"/>
</linearGradient>
<linearGradient id="paint4_linear_18_325" x1="93.8716" y1="235.006" x2="74.5522" y2="262.72" gradientUnits="userSpaceOnUse">
<stop stop-color="#FEE14B"/>
<stop offset="0.442708" stop-color="#A87A06"/>
<stop offset="0.786458" stop-color="#FFDF35"/>
</linearGradient>
<linearGradient id="paint5_linear_18_325" x1="178.335" y1="236.266" x2="196.088" y2="261.734" gradientUnits="userSpaceOnUse">
<stop stop-color="#1E1E1E"/>
<stop offset="0.838542" stop-color="white"/>
</linearGradient>
<linearGradient id="paint6_linear_18_325" x1="175.719" y1="236.955" x2="194.004" y2="263.186" gradientUnits="userSpaceOnUse">
<stop stop-color="#FFE354"/>
<stop offset="0.442708" stop-color="#A87A06"/>
<stop offset="0.786458" stop-color="#FFDF35"/>
</linearGradient>
<clipPath id="clip0_18_325">
<rect width="880" height="972" fill="white" transform="translate(-482 -136)"/>
</clipPath>
</defs>
</svg>
