<svg width="320" height="320" viewBox="0 0 320 320" fill="none" xmlns="http://www.w3.org/2000/svg">
<g clip-path="url(#clip0_18_325)">
<rect width="880" height="972" transform="translate(-102 -138)" fill="#1E1E1E"/>
<path d="M154.044 157.871C152.475 160.737 151.076 163.292 150.016 165.52C143.456 164.705 136.51 164.249 129.179 164.249C119.833 164.249 111.842 164.973 104.885 166.307C104.577 163.488 104.429 160.308 104.437 156.787C104.454 148.879 105.247 139.687 106.47 129.771C107.692 119.866 109.327 109.361 111.001 98.8289C111.204 97.5526 111.408 96.2756 111.611 94.9993C113.082 85.775 114.546 76.5856 115.731 67.9293C117.077 58.085 118.082 48.7827 118.318 40.7474C118.549 32.8474 118.063 25.5976 116.053 20.1739C115.026 17.4029 113.485 14.7851 111.13 12.8679C108.684 10.8771 105.723 9.93972 102.486 10.003C96.4585 10.1209 89.5054 13.6998 81.6177 19.7164L81.5082 19.7999L81.4035 19.8893C60.5908 37.6591 53.1577 65.6677 52.3059 92.6462C51.4508 119.728 57.174 146.856 63.8662 164.219C67.0811 172.56 69.446 178.301 71.4276 181.999C71.4312 182.005 71.4349 182.012 71.4385 182.019C69.5707 183.608 67.8052 185.249 66.0999 186.919C63.6657 189.302 61.3695 191.712 59.0802 194.116C49.549 204.122 40.1362 214.004 21.3809 221.232L19.8202 221.833L18.9355 223.253C2.13395 250.211 10.1711 284.065 33.7022 297.482C45.647 304.293 61.2487 307.238 77.6758 308.569C91.9189 309.723 107.315 309.692 122.185 309.662C124.531 309.657 126.865 309.652 129.179 309.652C133.308 309.652 137.753 309.731 142.425 309.813C156.639 310.063 172.96 310.349 188.927 308.586C210.248 306.231 231.937 300.16 248.566 284.842L249.238 284.223L249.647 283.408C259.851 263.086 255.301 243.061 248.658 228.641C245.322 221.401 241.391 215.406 238.302 211.225C236.753 209.129 235.406 207.474 234.434 206.332C233.948 205.76 233.555 205.315 233.277 205.006C233.138 204.852 233.027 204.731 232.948 204.646C232.93 204.627 232.914 204.609 232.899 204.593C232.894 204.587 232.888 204.582 232.883 204.576C232.863 204.553 232.839 204.526 232.811 204.495C232.728 204.402 232.612 204.274 232.463 204.112C232.164 203.788 231.733 203.331 231.169 202.76C230.042 201.618 228.382 200.019 226.191 198.116C221.811 194.311 215.294 189.282 206.643 184.267C201.125 181.067 194.74 177.874 187.492 175.009C187.611 174.756 187.728 174.505 187.845 174.256C189.798 170.075 193.859 164.952 199.799 159.039C205.666 153.2 213.042 146.902 221.254 140.345C229.455 133.796 238.399 127.06 247.38 120.332C248.344 119.61 249.307 118.889 250.271 118.167C258.267 112.181 266.232 106.218 273.58 100.476C281.804 94.0493 289.364 87.8168 295.422 82.0402C301.376 76.3625 306.304 70.7356 308.792 65.4931C310.057 62.8281 310.885 59.8651 310.548 56.8284C310.191 53.6205 308.596 50.9007 306.073 48.8237C301.473 45.0366 293.711 43.3181 283.572 42.7961L283.443 42.7894H283.315C255.221 42.7894 229.313 58.5042 208.833 77.7049C188.283 96.9712 172.482 120.406 164.579 137.324C160.825 145.359 157.511 151.524 154.855 156.39C154.58 156.892 154.31 157.386 154.044 157.871Z" fill="#FEFEFE" stroke="url(#paint0_linear_18_325)" stroke-width="10"/>
<path d="M228.5 207.935C228.5 207.935 266.5 246.171 245.5 279.943C215.5 308.958 170.5 304.652 128.5 304.652C94.3026 304.652 94.4464 304.694 120 302.848C122.5 302.668 193.5 306.533 203.5 260.477C216.039 202.725 184.5 184.024 179.5 178.037C208.5 185.762 228.5 207.935 228.5 207.935Z" fill="#EBEBEB"/>
<path d="M114 37.9048C114 64.0163 110.939 69.0554 110.428 71.8039C109.918 74.5525 63.9964 58.0611 65.0168 49.3572C70.4009 36.5308 88.5047 15 103.302 15C112.257 16.3745 113.771 24.6202 114 37.9048Z" fill="#FFE354"/>
<path d="M294.102 76.7353C272.238 96.0665 260.97 104.678 261.491 103.259C262.013 101.841 243.792 60.4606 251.401 54.291C265.487 47.6504 293.632 43.0097 304.585 52.3569C310.131 59.0903 304.394 66.1905 294.102 76.7353Z" fill="#FFE354"/>
<path d="M218 136.127C184.499 160.538 181.5 174.353 180 178.038C171.5 173.432 226.56 117.732 251.5 97.4403C276.439 77.1491 292 65.2008 303.5 57.3712C317.5 63.819 251.5 111.717 218 136.127Z" fill="#C6C6C6" fill-opacity="0.5"/>
<path d="M101.583 123.53C96.0126 165.047 99.5071 168.773 100.5 172.969C90.8166 174.746 92.6905 111.489 96.8167 80.6772C100.943 49.8657 106.262 31.1658 109.261 18.1143C119.729 38.6206 107.154 82.0131 101.583 123.53Z" fill="#CFCFCF" fill-opacity="0.5"/>
<g filter="url(#filter0_f_18_325)">
<ellipse cx="87" cy="264" rx="26" ry="8" fill="#FEE14B" fill-opacity="0.5"/>
</g>
<g filter="url(#filter1_f_18_325)">
<ellipse cx="176" cy="263" rx="26" ry="8" fill="#FEE14B" fill-opacity="0.5"/>
</g>
<ellipse cx="86.5" cy="236" rx="21.5" ry="27" fill="#D9D9D9"/>
<ellipse cx="176" cy="236.5" rx="22" ry="27.5" fill="#D9D9D9"/>
<ellipse cx="86" cy="238" rx="19" ry="25" fill="url(#paint1_linear_18_325)"/>
<ellipse cx="86" cy="247" rx="15" ry="16" fill="url(#paint2_linear_18_325)" fill-opacity="0.22"/>
<ellipse cx="83" cy="227.5" rx="10" ry="9.5" fill="#FEFEFE"/>
<ellipse cx="90" cy="236.5" rx="6" ry="5.5" fill="#FEFEFE" fill-opacity="0.76"/>
<ellipse cx="176" cy="238" rx="19" ry="25" fill="url(#paint3_linear_18_325)"/>
<ellipse cx="176" cy="247" rx="15" ry="16" fill="url(#paint4_linear_18_325)" fill-opacity="0.22"/>
<ellipse cx="173" cy="227.5" rx="10" ry="9.5" fill="#FEFEFE"/>
<ellipse cx="180" cy="236.5" rx="6" ry="5.5" fill="#FEFEFE" fill-opacity="0.76"/>
</g>
<defs>
<filter id="filter0_f_18_325" x="53" y="248" width="68" height="32" filterUnits="userSpaceOnUse" color-interpolation-filters="sRGB">
<feFlood flood-opacity="0" result="BackgroundImageFix"/>
<feBlend mode="normal" in="SourceGraphic" in2="BackgroundImageFix" result="shape"/>
<feGaussianBlur stdDeviation="4" result="effect1_foregroundBlur_18_325"/>
</filter>
<filter id="filter1_f_18_325" x="142" y="247" width="68" height="32" filterUnits="userSpaceOnUse" color-interpolation-filters="sRGB">
<feFlood flood-opacity="0" result="BackgroundImageFix"/>
<feBlend mode="normal" in="SourceGraphic" in2="BackgroundImageFix" result="shape"/>
<feGaussianBlur stdDeviation="4" result="effect1_foregroundBlur_18_325"/>
</filter>
<linearGradient id="paint0_linear_18_325" x1="160.311" y1="15" x2="160.311" y2="305" gradientUnits="userSpaceOnUse">
<stop stop-color="#FFE354"/>
<stop offset="0.489583" stop-color="#A87A06"/>
<stop offset="1" stop-color="#FFE354"/>
</linearGradient>
<linearGradient id="paint1_linear_18_325" x1="86" y1="213" x2="86" y2="263" gradientUnits="userSpaceOnUse">
<stop stop-color="#222222"/>
<stop offset="1" stop-color="#726C6C"/>
</linearGradient>
<linearGradient id="paint2_linear_18_325" x1="86" y1="231" x2="86" y2="263" gradientUnits="userSpaceOnUse">
<stop stop-color="#FFE354" stop-opacity="0"/>
<stop offset="0.755208" stop-color="#FFE354"/>
</linearGradient>
<linearGradient id="paint3_linear_18_325" x1="176" y1="213" x2="176" y2="263" gradientUnits="userSpaceOnUse">
<stop stop-color="#222222"/>
<stop offset="1" stop-color="#726C6C"/>
</linearGradient>
<linearGradient id="paint4_linear_18_325" x1="176" y1="231" x2="176" y2="263" gradientUnits="userSpaceOnUse">
<stop stop-color="#FFE354" stop-opacity="0"/>
<stop offset="0.755208" stop-color="#FFE354"/>
</linearGradient>
<clipPath id="clip0_18_325">
<rect width="880" height="972" fill="white" transform="translate(-102 -138)"/>
</clipPath>
</defs>
</svg>
