<svg width="600" height="600" viewBox="0 0 600 600" fill="none" xmlns="http://www.w3.org/2000/svg">
<path d="M291.807 301.94C290.283 304.995 288.764 307.845 287.249 310.485C276.466 309.25 265.134 308.569 253.253 308.569C236.029 308.569 221.287 309.968 208.445 312.546C207.847 306.94 207.561 300.614 207.576 293.614C207.607 278.215 209.075 260.335 211.336 241.076C213.9 219.221 217.348 196.516 220.777 173.94C223.491 156.068 226.192 138.277 228.434 121.053C230.918 101.96 232.769 83.9452 233.202 68.4006C233.628 53.099 232.727 39.1735 229.071 28.8049C227.211 23.5303 224.417 18.5247 220.105 14.8356C215.597 10.978 210.066 9.11145 203.965 9.23686C192.689 9.46866 179.793 16.4845 165.272 28.1277L165.072 28.2882L164.881 28.4595C126.563 62.8489 112.901 116.988 111.333 169.173C109.759 221.596 120.301 274.123 132.622 307.727C138.559 323.919 142.911 335.019 146.548 342.152C146.651 342.355 146.755 342.556 146.859 342.757C143.273 345.943 139.895 349.239 136.637 352.591C132.141 357.218 127.9 361.898 123.671 366.564C106.07 385.987 88.693 405.162 54.0952 419.177L51.209 420.347L49.6208 423.025C18.8553 474.915 33.4437 540.146 76.8154 566.14C98.9091 579.382 127.773 585.107 158.133 587.693C184.449 589.934 212.894 589.874 240.344 589.816C244.676 589.807 248.983 589.798 253.253 589.798C260.862 589.798 269.057 589.949 277.675 590.108C303.922 590.593 334.099 591.151 363.608 587.725C403.05 583.146 443.136 571.334 473.828 541.616L475.021 540.462L475.736 538.964C494.425 499.839 486.119 461.291 473.9 433.412C467.765 419.415 460.53 407.815 454.839 399.718C451.987 395.66 449.505 392.456 447.715 390.244C446.82 389.137 446.096 388.277 445.584 387.68C445.46 387.535 445.349 387.406 445.25 387.292C445.145 387.171 445.055 387.068 444.98 386.983C444.934 386.93 444.893 386.884 444.859 386.845C444.821 386.801 444.776 386.748 444.725 386.687C444.572 386.508 444.359 386.259 444.085 385.946C443.536 385.32 442.742 384.436 441.703 383.33C439.625 381.118 436.566 378.019 432.524 374.328C424.443 366.951 412.414 357.193 396.438 347.456C386.077 341.141 374.058 334.837 360.387 329.2C360.42 329.157 360.454 329.114 360.487 329.071C392.991 287.2 443.72 203.051 469.206 133.001C475.6 115.427 480.494 98.5036 483.079 83.1924C485.643 68.0064 486.059 53.7095 482.868 41.7418C479.579 29.4075 472.339 19.3185 460.022 14.0398C448.218 8.98079 433.134 8.9526 415.128 13.166C405.081 15.5167 396.852 22.7403 390.06 31.5708C383.175 40.5246 376.941 52.2079 371.168 65.4058C359.617 91.8106 349.165 126.046 339.01 160.865C337.253 166.888 335.505 172.931 333.759 178.963C325.341 208.058 316.999 236.89 308.167 262.001C302.846 277.129 297.423 290.678 291.807 301.94Z" fill="url(#paint0_linear_118_234)" stroke="url(#paint1_linear_118_234)" stroke-width="18.4615"/>
<path d="M440.8 396.222C440.8 396.222 501.723 466.904 469.415 539.299C412.184 594.713 330.03 585.404 252.492 585.404C189.358 585.404 189.624 585.486 236.8 581.903C241.415 581.553 372.492 589.053 390.953 499.677C414.103 387.603 360.923 346.696 351.692 335.077C413.538 360.462 440.8 396.222 440.8 396.222Z" fill="url(#paint2_linear_118_234)" fill-opacity="0.5"/>
<path d="M225.231 62.9112C225.231 113.584 219.579 123.363 218.636 128.697C217.694 134.03 132.916 102.027 134.8 85.136C144.74 60.2447 178.162 18.4617 205.48 18.4617C222.014 21.1291 224.808 37.1309 225.231 62.9112Z" fill="#FFE354"/>
<path d="M480 52.6153C474.611 107.467 452.654 155.924 451.507 153.227C450.359 150.529 362.021 127.183 364.641 108.904C368.741 80.2893 394.093 12.9082 428.436 12.914C447.515 12.9169 480.609 24.6981 480 52.6153Z" fill="#FFE354"/>
<g filter="url(#filter0_f_118_234)">
<ellipse cx="148.154" cy="475.385" rx="66.9231" ry="44.3077" fill="url(#paint3_radial_118_234)" fill-opacity="0.3"/>
</g>
<g filter="url(#filter1_f_118_234)">
<ellipse cx="363.692" cy="475.385" rx="65.5385" ry="44.3077" fill="url(#paint4_radial_118_234)" fill-opacity="0.3"/>
</g>
<g filter="url(#filter2_f_118_234)">
<path d="M345.692 332.308C437.077 203.539 430.154 208.615 450 153.692C450 153.692 318.923 343.846 337.846 351.231C405.545 377.65 463.846 433.385 463.846 433.385C450 378.923 378.615 347.231 345.692 332.308Z" fill="url(#paint5_linear_118_234)"/>
</g>
<g filter="url(#filter3_d_118_234)">
<path d="M114 454.859C114 465.134 122.744 473.762 133.906 473.762C145.068 473.762 153.811 465.134 153.811 454.859C153.811 444.583 145.068 435.955 133.906 435.955C122.744 435.955 114 444.583 114 454.859Z" fill="white" stroke="url(#paint6_linear_118_234)" stroke-width="8.30769"/>
<path d="M123.022 431.3C123.022 452.959 141.226 470.754 163.98 470.754C186.734 470.754 204.938 452.959 204.938 431.3C204.938 409.642 186.734 391.846 163.98 391.846C141.226 391.846 123.022 409.642 123.022 431.3Z" fill="white" stroke="url(#paint7_linear_118_234)" stroke-width="8.30769"/>
<ellipse cx="17.5434" cy="17.0422" rx="17.5434" ry="17.0422" transform="matrix(-1 0 0 1 151.95 435.812)" fill="white"/>
</g>
<g filter="url(#filter4_d_118_234)">
<path d="M393.484 454.859C393.484 465.134 384.741 473.762 373.579 473.762C362.417 473.762 353.673 465.134 353.673 454.859C353.673 444.583 362.417 435.955 373.579 435.955C384.741 435.955 393.484 444.583 393.484 454.859Z" fill="white" stroke="url(#paint8_linear_118_234)" stroke-width="8.30769"/>
<path d="M384.462 431.3C384.462 452.959 366.258 470.754 343.504 470.754C320.75 470.754 302.546 452.959 302.546 431.3C302.546 409.642 320.75 391.846 343.504 391.846C366.258 391.846 384.462 409.642 384.462 431.3Z" fill="white" stroke="url(#paint9_linear_118_234)" stroke-width="8.30769"/>
<ellipse cx="373.077" cy="452.854" rx="17.5434" ry="17.0422" fill="white"/>
</g>
<path d="M83.4717 283.88C53.7058 236.685 50.928 206.462 62.9046 187.99C69.303 178.121 69.9985 145.246 67.5201 124.759C65.3385 106.726 91.3704 84.5673 95.9234 65.1585C96.1615 64.1436 97.5764 64.0589 97.6309 65.0999C98.6826 85.1815 71.9091 109.158 73.9816 130.297C76.244 153.374 81.2095 186.462 73.9816 197.22C62.0291 215.01 69.6946 242.59 85.0543 283.097C85.4456 284.129 84.0605 284.813 83.4717 283.88Z" fill="white"/>
<path d="M462.745 248.249C506.73 213.917 519.575 186.418 514.559 164.982C511.879 153.53 522.353 122.361 531.621 103.922C539.778 87.6925 522.784 58.03 525.07 38.2258C525.19 37.1902 523.887 36.6316 523.483 37.5927C515.696 56.1326 532.772 87.7568 523.666 106.946C513.725 127.895 497.851 157.349 501.011 169.918C506.235 190.704 489.686 214.061 461.521 246.976C460.803 247.815 461.875 248.928 462.745 248.249Z" fill="white"/>
<path d="M39.6492 118.053C21.5584 66.1836 52.0519 26.9264 70.7485 13.1596C54.135 29.4072 37.8388 81.7886 41.7807 117.451C41.905 118.575 40.0218 119.121 39.6492 118.053Z" fill="white"/>
<path d="M527.207 523.359C555.821 441.807 506.634 382.074 477.231 361.808C503.876 386.287 531.828 468.96 525.153 522.825C525.014 523.948 526.833 524.427 527.207 523.359Z" fill="white"/>
<path d="M555.524 446.46C565.922 408.773 543.046 381.313 529.125 371.718C541.443 383.035 554.325 419.466 553.295 445.962C553.251 447.092 555.223 447.55 555.524 446.46Z" fill="white"/>
<path d="M13.1975 412.015C18.8371 373.329 50.8263 357.391 67.4311 354.206C51.6014 359.611 25.1534 387.784 15.4393 412.456C15.0248 413.508 13.0343 413.134 13.1975 412.015Z" fill="white"/>
<g filter="url(#filter5_f_118_234)">
<path d="M186.462 312C176.123 276.923 196.615 174.462 215.538 130.615C200.4 232.892 198.462 302.154 199.385 324C194.462 332.615 196.8 347.077 186.462 312Z" fill="url(#paint10_linear_118_234)"/>
</g>
<g filter="url(#filter6_d_118_234)">
<rect x="383.077" y="326.769" width="7.38461" height="59.0769" rx="3.69231" fill="#7FA5D2"/>
<rect x="380.769" y="324.462" width="12" height="63.6923" rx="6" stroke="white" stroke-width="4.61538"/>
</g>
<g filter="url(#filter7_d_118_234)">
<rect x="407.077" y="316.615" width="8.30769" height="58.1538" rx="4.15385" fill="#7FA5D2"/>
<rect x="404.769" y="314.308" width="12.9231" height="62.7692" rx="6.46154" stroke="white" stroke-width="4.61538"/>
</g>
<g filter="url(#filter8_d_118_234)">
<rect x="432" y="326.769" width="7.38461" height="59.0769" rx="3.69231" fill="#7FA5D2"/>
<rect x="429.692" y="324.462" width="12" height="63.6923" rx="6" stroke="white" stroke-width="4.61538"/>
</g>
<g filter="url(#filter9_d_118_234)">
<rect x="456" y="316.615" width="7.38461" height="58.1538" rx="3.69231" fill="#7FA5D2"/>
<rect x="453.692" y="314.308" width="12" height="62.7692" rx="6" stroke="white" stroke-width="4.61538"/>
</g>
<g filter="url(#filter10_d_118_234)">
<path d="M61.8601 434.769C58.3752 447.692 55.2736 472.745 70.7466 469.57C86.2196 466.396 83.9893 445.047 80.94 434.769" stroke="url(#paint11_linear_118_234)" stroke-width="5.53846" stroke-linecap="round" shape-rendering="crispEdges"/>
</g>
<ellipse cx="68.3365" cy="453.404" rx="3.83654" ry="5.48077" fill="white" fill-opacity="0.7"/>
<ellipse cx="68.8847" cy="442.442" rx="2.19231" ry="3.28846" fill="white" fill-opacity="0.7"/>
<g filter="url(#filter11_d_118_234)">
<path d="M412.749 404.308C408.622 419.612 404.949 449.28 423.272 445.52C441.595 441.76 438.954 416.478 435.343 404.308" stroke="url(#paint12_linear_118_234)" stroke-width="6.46154" stroke-linecap="round"/>
<mask id="path-33-inside-1_118_234" fill="white">
<ellipse cx="420.418" cy="426.375" rx="4.54327" ry="6.49038"/>
</mask>
<ellipse cx="420.418" cy="426.375" rx="4.54327" ry="6.49038" fill="white" fill-opacity="0.7"/>
<path d="M418.5 426.375C418.5 427.004 418.311 427.296 418.337 427.259C418.36 427.227 418.503 427.032 418.845 426.825C419.211 426.604 419.757 426.404 420.418 426.404V439.327C424.36 439.327 427.268 437.036 428.924 434.67C430.595 432.283 431.423 429.33 431.423 426.375H418.5ZM420.418 426.404C421.079 426.404 421.626 426.604 421.991 426.825C422.334 427.032 422.477 427.227 422.499 427.259C422.525 427.296 422.337 427.004 422.337 426.375H409.413C409.413 429.33 410.242 432.283 411.912 434.67C413.569 437.036 416.476 439.327 420.418 439.327V426.404ZM422.337 426.375C422.337 425.746 422.525 425.453 422.499 425.491C422.477 425.523 422.334 425.718 421.991 425.925C421.626 426.146 421.079 426.346 420.418 426.346V413.423C416.476 413.423 413.569 415.714 411.912 418.08C410.242 420.467 409.413 423.419 409.413 426.375H422.337ZM420.418 426.346C419.757 426.346 419.211 426.146 418.845 425.925C418.503 425.718 418.36 425.523 418.337 425.491C418.311 425.453 418.5 425.746 418.5 426.375H431.423C431.423 423.419 430.595 420.467 428.924 418.08C427.268 415.714 424.36 413.423 420.418 413.423V426.346Z" fill="url(#paint13_linear_118_234)" mask="url(#path-33-inside-1_118_234)"/>
<mask id="path-35-inside-2_118_234" fill="white">
<ellipse cx="421.067" cy="413.394" rx="2.59615" ry="3.89423"/>
</mask>
<ellipse cx="421.067" cy="413.394" rx="2.59615" ry="3.89423" fill="white" fill-opacity="0.7"/>
<path d="M417.202 413.394C417.202 413.372 417.196 413.059 417.527 412.564C417.827 412.113 418.952 410.827 421.067 410.827V423.75C424.617 423.75 427.039 421.592 428.279 419.732C429.549 417.827 430.125 415.567 430.125 413.394H417.202ZM421.067 410.827C423.183 410.827 424.308 412.113 424.608 412.564C424.938 413.059 424.933 413.372 424.933 413.394H412.01C412.01 415.567 412.585 417.827 413.855 419.732C415.095 421.592 417.518 423.75 421.067 423.75V410.827ZM424.933 413.394C424.933 413.417 424.938 413.729 424.608 414.225C424.308 414.675 423.183 415.962 421.067 415.962V403.038C417.518 403.038 415.095 405.196 413.855 407.056C412.585 408.961 412.01 411.221 412.01 413.394H424.933ZM421.067 415.962C418.952 415.962 417.827 414.675 417.527 414.225C417.196 413.729 417.202 413.417 417.202 413.394H430.125C430.125 411.221 429.549 408.961 428.279 407.056C427.039 405.196 424.617 403.038 421.067 403.038V415.962Z" fill="url(#paint14_linear_118_234)" mask="url(#path-35-inside-2_118_234)"/>
</g>
<g filter="url(#filter12_d_118_234)">
<path d="M172.238 331.385C169.304 342.267 166.692 363.365 179.722 360.691C192.751 358.017 190.873 340.039 188.306 331.385" stroke="url(#paint15_linear_118_234)" stroke-opacity="0.7" stroke-width="5.53846" stroke-linecap="round" shape-rendering="crispEdges"/>
</g>
<ellipse cx="177.692" cy="347.077" rx="3.23077" ry="4.61538" fill="white" fill-opacity="0.7"/>
<ellipse cx="178.154" cy="337.846" rx="1.84615" ry="2.76923" fill="white" fill-opacity="0.7"/>
<g filter="url(#filter13_d_118_234)">
<path d="M221.161 378.461C218.226 389.344 215.615 410.441 228.644 407.768C241.674 405.094 239.796 387.116 237.228 378.461" stroke="url(#paint16_linear_118_234)" stroke-opacity="0.7" stroke-width="5.53846" stroke-linecap="round"/>
<ellipse cx="226.615" cy="394.154" rx="3.23077" ry="4.61538" fill="white" fill-opacity="0.6"/>
<ellipse cx="227.077" cy="384.923" rx="1.84615" ry="2.76923" fill="white" fill-opacity="0.6"/>
</g>
<g filter="url(#filter14_d_118_234)">
<path d="M287.787 341.79C283.518 357.62 279.719 388.306 298.672 384.418C317.624 380.529 314.893 354.379 311.158 341.79" stroke="url(#paint17_linear_118_234)" stroke-opacity="0.6" stroke-width="5.53846" stroke-linecap="round"/>
<mask id="path-44-inside-3_118_234" fill="white">
<ellipse cx="295.72" cy="364.615" rx="4.6993" ry="6.71329"/>
</mask>
<ellipse cx="295.72" cy="364.615" rx="4.6993" ry="6.71329" fill="white" fill-opacity="0.3"/>
<path d="M294.881 364.615C294.881 365.472 294.629 366.01 294.505 366.186C294.452 366.263 294.488 366.18 294.685 366.061C294.902 365.929 295.264 365.79 295.72 365.79V376.867C299.321 376.867 302.015 374.775 303.58 372.538C305.158 370.284 305.958 367.466 305.958 364.615H294.881ZM295.72 365.79C296.175 365.79 296.538 365.929 296.755 366.061C296.952 366.18 296.988 366.263 296.934 366.186C296.811 366.01 296.559 365.472 296.559 364.615H285.482C285.482 367.466 286.282 370.284 287.86 372.538C289.425 374.775 292.119 376.867 295.72 376.867V365.79ZM296.559 364.615C296.559 363.758 296.811 363.22 296.934 363.044C296.988 362.967 296.952 363.051 296.755 363.17C296.538 363.301 296.175 363.44 295.72 363.44V352.363C292.119 352.363 289.425 354.456 287.86 356.692C286.282 358.946 285.482 361.764 285.482 364.615H296.559ZM295.72 363.44C295.264 363.44 294.902 363.301 294.685 363.17C294.488 363.051 294.452 362.967 294.505 363.044C294.629 363.22 294.881 363.758 294.881 364.615H305.958C305.958 361.764 305.158 358.946 303.58 356.692C302.015 354.456 299.321 352.363 295.72 352.363V363.44Z" fill="url(#paint18_linear_118_234)" fill-opacity="0.6" mask="url(#path-44-inside-3_118_234)"/>
<ellipse cx="295.384" cy="350.307" rx="2.76923" ry="3.23077" fill="white" fill-opacity="0.56"/>
</g>
<path d="M78.0844 505.846C75.1498 516.729 72.5379 537.826 85.5678 535.153C98.5977 532.479 96.7195 514.501 94.1517 505.846" stroke="url(#paint19_linear_118_234)" stroke-width="5.53846" stroke-linecap="round"/>
<ellipse cx="83.5384" cy="521.538" rx="3.23077" ry="4.61538" fill="white" fill-opacity="0.7"/>
<ellipse cx="84" cy="512.308" rx="1.84615" ry="2.76923" fill="white" fill-opacity="0.7"/>
<defs>
<filter id="filter0_f_118_234" x="72.6463" y="422.492" width="151.015" height="105.785" filterUnits="userSpaceOnUse" color-interpolation-filters="sRGB">
<feFlood flood-opacity="0" result="BackgroundImageFix"/>
<feBlend mode="normal" in="SourceGraphic" in2="BackgroundImageFix" result="shape"/>
<feGaussianBlur stdDeviation="4.29231" result="effect1_foregroundBlur_118_234"/>
</filter>
<filter id="filter1_f_118_234" x="289.569" y="422.492" width="148.246" height="105.785" filterUnits="userSpaceOnUse" color-interpolation-filters="sRGB">
<feFlood flood-opacity="0" result="BackgroundImageFix"/>
<feBlend mode="normal" in="SourceGraphic" in2="BackgroundImageFix" result="shape"/>
<feGaussianBlur stdDeviation="4.29231" result="effect1_foregroundBlur_118_234"/>
</filter>
<filter id="filter2_f_118_234" x="332.286" y="150" width="135.252" height="287.077" filterUnits="userSpaceOnUse" color-interpolation-filters="sRGB">
<feFlood flood-opacity="0" result="BackgroundImageFix"/>
<feBlend mode="normal" in="SourceGraphic" in2="BackgroundImageFix" result="shape"/>
<feGaussianBlur stdDeviation="1.84615" result="effect1_foregroundBlur_118_234"/>
</filter>
<filter id="filter3_d_118_234" x="102.462" y="387.692" width="114.015" height="106.839" filterUnits="userSpaceOnUse" color-interpolation-filters="sRGB">
<feFlood flood-opacity="0" result="BackgroundImageFix"/>
<feColorMatrix in="SourceAlpha" type="matrix" values="0 0 0 0 0 0 0 0 0 0 0 0 0 0 0 0 0 0 127 0" result="hardAlpha"/>
<feOffset dy="9.23077"/>
<feGaussianBlur stdDeviation="3.69231"/>
<feComposite in2="hardAlpha" operator="out"/>
<feColorMatrix type="matrix" values="0 0 0 0 0 0 0 0 0 0 0 0 0 0 0 0 0 0 0.25 0"/>
<feBlend mode="normal" in2="BackgroundImageFix" result="effect1_dropShadow_118_234"/>
<feBlend mode="normal" in="SourceGraphic" in2="effect1_dropShadow_118_234" result="shape"/>
</filter>
<filter id="filter4_d_118_234" x="291.007" y="387.692" width="114.015" height="106.839" filterUnits="userSpaceOnUse" color-interpolation-filters="sRGB">
<feFlood flood-opacity="0" result="BackgroundImageFix"/>
<feColorMatrix in="SourceAlpha" type="matrix" values="0 0 0 0 0 0 0 0 0 0 0 0 0 0 0 0 0 0 127 0" result="hardAlpha"/>
<feOffset dy="9.23077"/>
<feGaussianBlur stdDeviation="3.69231"/>
<feComposite in2="hardAlpha" operator="out"/>
<feColorMatrix type="matrix" values="0 0 0 0 0 0 0 0 0 0 0 0 0 0 0 0 0 0 0.25 0"/>
<feBlend mode="normal" in2="BackgroundImageFix" result="effect1_dropShadow_118_234"/>
<feBlend mode="normal" in="SourceGraphic" in2="effect1_dropShadow_118_234" result="shape"/>
</filter>
<filter id="filter5_f_118_234" x="180.546" y="127.477" width="38.1314" height="210.059" filterUnits="userSpaceOnUse" color-interpolation-filters="sRGB">
<feFlood flood-opacity="0" result="BackgroundImageFix"/>
<feBlend mode="normal" in="SourceGraphic" in2="BackgroundImageFix" result="shape"/>
<feGaussianBlur stdDeviation="1.56923" result="effect1_foregroundBlur_118_234"/>
</filter>
<filter id="filter6_d_118_234" x="373.847" y="322.154" width="25.846" height="80.3079" filterUnits="userSpaceOnUse" color-interpolation-filters="sRGB">
<feFlood flood-opacity="0" result="BackgroundImageFix"/>
<feColorMatrix in="SourceAlpha" type="matrix" values="0 0 0 0 0 0 0 0 0 0 0 0 0 0 0 0 0 0 127 0" result="hardAlpha"/>
<feOffset dy="7.38461"/>
<feGaussianBlur stdDeviation="2.30769"/>
<feComposite in2="hardAlpha" operator="out"/>
<feColorMatrix type="matrix" values="0 0 0 0 0 0 0 0 0 0 0 0 0 0 0 0 0 0 0.25 0"/>
<feBlend mode="normal" in2="BackgroundImageFix" result="effect1_dropShadow_118_234"/>
<feBlend mode="normal" in="SourceGraphic" in2="effect1_dropShadow_118_234" result="shape"/>
</filter>
<filter id="filter7_d_118_234" x="397.847" y="312" width="26.7689" height="79.3848" filterUnits="userSpaceOnUse" color-interpolation-filters="sRGB">
<feFlood flood-opacity="0" result="BackgroundImageFix"/>
<feColorMatrix in="SourceAlpha" type="matrix" values="0 0 0 0 0 0 0 0 0 0 0 0 0 0 0 0 0 0 127 0" result="hardAlpha"/>
<feOffset dy="7.38461"/>
<feGaussianBlur stdDeviation="2.30769"/>
<feComposite in2="hardAlpha" operator="out"/>
<feColorMatrix type="matrix" values="0 0 0 0 0 0 0 0 0 0 0 0 0 0 0 0 0 0 0.25 0"/>
<feBlend mode="normal" in2="BackgroundImageFix" result="effect1_dropShadow_118_234"/>
<feBlend mode="normal" in="SourceGraphic" in2="effect1_dropShadow_118_234" result="shape"/>
</filter>
<filter id="filter8_d_118_234" x="422.769" y="322.154" width="25.846" height="80.3079" filterUnits="userSpaceOnUse" color-interpolation-filters="sRGB">
<feFlood flood-opacity="0" result="BackgroundImageFix"/>
<feColorMatrix in="SourceAlpha" type="matrix" values="0 0 0 0 0 0 0 0 0 0 0 0 0 0 0 0 0 0 127 0" result="hardAlpha"/>
<feOffset dy="7.38461"/>
<feGaussianBlur stdDeviation="2.30769"/>
<feComposite in2="hardAlpha" operator="out"/>
<feColorMatrix type="matrix" values="0 0 0 0 0 0 0 0 0 0 0 0 0 0 0 0 0 0 0.25 0"/>
<feBlend mode="normal" in2="BackgroundImageFix" result="effect1_dropShadow_118_234"/>
<feBlend mode="normal" in="SourceGraphic" in2="effect1_dropShadow_118_234" result="shape"/>
</filter>
<filter id="filter9_d_118_234" x="446.769" y="312" width="25.846" height="79.3848" filterUnits="userSpaceOnUse" color-interpolation-filters="sRGB">
<feFlood flood-opacity="0" result="BackgroundImageFix"/>
<feColorMatrix in="SourceAlpha" type="matrix" values="0 0 0 0 0 0 0 0 0 0 0 0 0 0 0 0 0 0 127 0" result="hardAlpha"/>
<feOffset dy="7.38461"/>
<feGaussianBlur stdDeviation="2.30769"/>
<feComposite in2="hardAlpha" operator="out"/>
<feColorMatrix type="matrix" values="0 0 0 0 0 0 0 0 0 0 0 0 0 0 0 0 0 0 0.25 0"/>
<feBlend mode="normal" in2="BackgroundImageFix" result="effect1_dropShadow_118_234"/>
<feBlend mode="normal" in="SourceGraphic" in2="effect1_dropShadow_118_234" result="shape"/>
</filter>
<filter id="filter10_d_118_234" x="52.5582" y="431.999" width="37.0379" height="47.9989" filterUnits="userSpaceOnUse" color-interpolation-filters="sRGB">
<feFlood flood-opacity="0" result="BackgroundImageFix"/>
<feColorMatrix in="SourceAlpha" type="matrix" values="0 0 0 0 0 0 0 0 0 0 0 0 0 0 0 0 0 0 127 0" result="hardAlpha"/>
<feOffset dy="3.69231"/>
<feGaussianBlur stdDeviation="1.84615"/>
<feComposite in2="hardAlpha" operator="out"/>
<feColorMatrix type="matrix" values="0 0 0 0 0 0 0 0 0 0 0 0 0 0 0 0 0 0 0.15 0"/>
<feBlend mode="normal" in2="BackgroundImageFix" result="effect1_dropShadow_118_234"/>
<feBlend mode="normal" in="SourceGraphic" in2="effect1_dropShadow_118_234" result="shape"/>
</filter>
<filter id="filter11_d_118_234" x="401.816" y="401.076" width="43.696" height="58.7985" filterUnits="userSpaceOnUse" color-interpolation-filters="sRGB">
<feFlood flood-opacity="0" result="BackgroundImageFix"/>
<feColorMatrix in="SourceAlpha" type="matrix" values="0 0 0 0 0 0 0 0 0 0 0 0 0 0 0 0 0 0 127 0" result="hardAlpha"/>
<feOffset dy="6.46154"/>
<feGaussianBlur stdDeviation="2.16923"/>
<feComposite in2="hardAlpha" operator="out"/>
<feColorMatrix type="matrix" values="0 0 0 0 0 0 0 0 0 0 0 0 0 0 0 0 0 0 0.1 0"/>
<feBlend mode="normal" in2="BackgroundImageFix" result="effect1_dropShadow_118_234"/>
<feBlend mode="normal" in="SourceGraphic" in2="effect1_dropShadow_118_234" result="shape"/>
</filter>
<filter id="filter12_d_118_234" x="163.385" y="328.615" width="33.2303" height="42.4603" filterUnits="userSpaceOnUse" color-interpolation-filters="sRGB">
<feFlood flood-opacity="0" result="BackgroundImageFix"/>
<feColorMatrix in="SourceAlpha" type="matrix" values="0 0 0 0 0 0 0 0 0 0 0 0 0 0 0 0 0 0 127 0" result="hardAlpha"/>
<feOffset dy="3.69231"/>
<feGaussianBlur stdDeviation="1.84615"/>
<feComposite in2="hardAlpha" operator="out"/>
<feColorMatrix type="matrix" values="0 0 0 0 0 0 0 0 0 0 0 0 0 0 0 0 0 0 0.25 0"/>
<feBlend mode="normal" in2="BackgroundImageFix" result="effect1_dropShadow_118_234"/>
<feBlend mode="normal" in="SourceGraphic" in2="effect1_dropShadow_118_234" result="shape"/>
</filter>
<filter id="filter13_d_118_234" x="212.308" y="375.691" width="33.2303" height="42.4603" filterUnits="userSpaceOnUse" color-interpolation-filters="sRGB">
<feFlood flood-opacity="0" result="BackgroundImageFix"/>
<feColorMatrix in="SourceAlpha" type="matrix" values="0 0 0 0 0 0 0 0 0 0 0 0 0 0 0 0 0 0 127 0" result="hardAlpha"/>
<feOffset dy="3.69231"/>
<feGaussianBlur stdDeviation="1.84615"/>
<feComposite in2="hardAlpha" operator="out"/>
<feColorMatrix type="matrix" values="0 0 0 0 0 0 0 0 0 0 0 0 0 0 0 0 0 0 0.15 0"/>
<feBlend mode="normal" in2="BackgroundImageFix" result="effect1_dropShadow_118_234"/>
<feBlend mode="normal" in="SourceGraphic" in2="effect1_dropShadow_118_234" result="shape"/>
</filter>
<filter id="filter14_d_118_234" x="277.846" y="339.02" width="42.4613" height="55.8871" filterUnits="userSpaceOnUse" color-interpolation-filters="sRGB">
<feFlood flood-opacity="0" result="BackgroundImageFix"/>
<feColorMatrix in="SourceAlpha" type="matrix" values="0 0 0 0 0 0 0 0 0 0 0 0 0 0 0 0 0 0 127 0" result="hardAlpha"/>
<feOffset dy="3.69231"/>
<feGaussianBlur stdDeviation="1.84615"/>
<feComposite in2="hardAlpha" operator="out"/>
<feColorMatrix type="matrix" values="0 0 0 0 0 0 0 0 0 0 0 0 0 0 0 0 0 0 0.15 0"/>
<feBlend mode="normal" in2="BackgroundImageFix" result="effect1_dropShadow_118_234"/>
<feBlend mode="normal" in="SourceGraphic" in2="effect1_dropShadow_118_234" result="shape"/>
</filter>
<linearGradient id="paint0_linear_118_234" x1="259.968" y1="18.4617" x2="272.308" y2="600" gradientUnits="userSpaceOnUse">
<stop offset="0.285333" stop-color="#5C8DC5"/>
<stop offset="0.838098" stop-color="white"/>
</linearGradient>
<linearGradient id="paint1_linear_118_234" x1="310.729" y1="18.4617" x2="310.729" y2="581.241" gradientUnits="userSpaceOnUse">
<stop stop-color="#FFE354"/>
<stop offset="0.473958" stop-color="#A87A06"/>
<stop offset="1" stop-color="#FFE354"/>
</linearGradient>
<linearGradient id="paint2_linear_118_234" x1="378.391" y1="584.161" x2="395.077" y2="335.077" gradientUnits="userSpaceOnUse">
<stop offset="0.135333" stop-color="#EBEBEB"/>
<stop offset="0.493735" stop-color="#EBEBEB"/>
<stop offset="0.710901" stop-color="#EBEBEB" stop-opacity="0"/>
</linearGradient>
<radialGradient id="paint3_radial_118_234" cx="0" cy="0" r="1" gradientUnits="userSpaceOnUse" gradientTransform="translate(160.23 475.385) rotate(-2.28743) scale(156.111 446.018)">
<stop stop-color="#7DA4D1"/>
<stop offset="1" stop-color="#7DA4D1" stop-opacity="0"/>
</radialGradient>
<radialGradient id="paint4_radial_118_234" cx="0" cy="0" r="1" gradientUnits="userSpaceOnUse" gradientTransform="translate(375.519 475.385) rotate(-2.3357) scale(152.886 446.003)">
<stop stop-color="#7DA4D1"/>
<stop offset="1" stop-color="#7DA4D1" stop-opacity="0"/>
</radialGradient>
<linearGradient id="paint5_linear_118_234" x1="393.982" y1="153.692" x2="297.692" y2="418.615" gradientUnits="userSpaceOnUse">
<stop offset="0.240333" stop-color="#5C8DC5"/>
<stop offset="1" stop-color="#ABC4E1" stop-opacity="0"/>
</linearGradient>
<linearGradient id="paint6_linear_118_234" x1="140.237" y1="455.278" x2="120.597" y2="488.096" gradientUnits="userSpaceOnUse">
<stop stop-color="#FFDF35"/>
<stop offset="0.9999" stop-color="#D89F10"/>
<stop offset="1" stop-color="#FFE354"/>
</linearGradient>
<linearGradient id="paint7_linear_118_234" x1="163.98" y1="387.692" x2="163.98" y2="436.814" gradientUnits="userSpaceOnUse">
<stop stop-color="#FFDF35"/>
<stop offset="0.0267403" stop-color="#D89F10"/>
<stop offset="1" stop-color="#FFE354"/>
</linearGradient>
<linearGradient id="paint8_linear_118_234" x1="367.247" y1="455.278" x2="386.887" y2="488.096" gradientUnits="userSpaceOnUse">
<stop stop-color="#FFDF35"/>
<stop offset="0.9999" stop-color="#D89F10"/>
<stop offset="1" stop-color="#FFE354"/>
</linearGradient>
<linearGradient id="paint9_linear_118_234" x1="343.504" y1="387.692" x2="343.504" y2="436.814" gradientUnits="userSpaceOnUse">
<stop stop-color="#FFDF35"/>
<stop offset="0.0267403" stop-color="#D89F10"/>
<stop offset="1" stop-color="#FFE354"/>
</linearGradient>
<linearGradient id="paint10_linear_118_234" x1="192.685" y1="130.615" x2="192.685" y2="331.588" gradientUnits="userSpaceOnUse">
<stop offset="0.400333" stop-color="#527CAB"/>
<stop offset="1" stop-color="#ADC5E2"/>
</linearGradient>
<linearGradient id="paint11_linear_118_234" x1="71.0772" y1="415.586" x2="71.0772" y2="469.846" gradientUnits="userSpaceOnUse">
<stop stop-color="white" stop-opacity="0"/>
<stop offset="0.725" stop-color="white"/>
</linearGradient>
<linearGradient id="paint12_linear_118_234" x1="423.664" y1="381.591" x2="423.664" y2="445.846" gradientUnits="userSpaceOnUse">
<stop stop-color="white" stop-opacity="0"/>
<stop offset="0.200333" stop-color="white" stop-opacity="0.0901148"/>
<stop offset="0.725" stop-color="white"/>
</linearGradient>
<linearGradient id="paint13_linear_118_234" x1="420.418" y1="412.786" x2="420.418" y2="432.865" gradientUnits="userSpaceOnUse">
<stop stop-color="white" stop-opacity="0"/>
<stop offset="0.200333" stop-color="white" stop-opacity="0.0901148"/>
<stop offset="0.725" stop-color="white"/>
</linearGradient>
<linearGradient id="paint14_linear_118_234" x1="421.067" y1="405.241" x2="421.067" y2="417.288" gradientUnits="userSpaceOnUse">
<stop stop-color="white" stop-opacity="0"/>
<stop offset="0.200333" stop-color="white" stop-opacity="0.0901148"/>
<stop offset="0.725" stop-color="white"/>
</linearGradient>
<linearGradient id="paint15_linear_118_234" x1="180" y1="331.385" x2="180" y2="385.385" gradientUnits="userSpaceOnUse">
<stop stop-color="white" stop-opacity="0"/>
<stop offset="0.725" stop-color="white"/>
</linearGradient>
<linearGradient id="paint16_linear_118_234" x1="228.923" y1="362.308" x2="228.923" y2="423.692" gradientUnits="userSpaceOnUse">
<stop offset="0.280333" stop-color="white" stop-opacity="0"/>
<stop offset="0.725" stop-color="white"/>
</linearGradient>
<linearGradient id="paint17_linear_118_234" x1="299.077" y1="328.154" x2="299.077" y2="384.923" gradientUnits="userSpaceOnUse">
<stop offset="0.160333" stop-color="white" stop-opacity="0"/>
<stop offset="1" stop-color="white"/>
</linearGradient>
<linearGradient id="paint18_linear_118_234" x1="295.72" y1="350.559" x2="295.72" y2="371.328" gradientUnits="userSpaceOnUse">
<stop stop-color="white" stop-opacity="0"/>
<stop offset="1" stop-color="white"/>
</linearGradient>
<linearGradient id="paint19_linear_118_234" x1="85.8462" y1="489.692" x2="85.8462" y2="535.385" gradientUnits="userSpaceOnUse">
<stop stop-color="white" stop-opacity="0"/>
<stop offset="0.725" stop-color="white"/>
</linearGradient>
</defs>
</svg>
