<svg width="602" height="759" viewBox="0 0 602 759" fill="none" xmlns="http://www.w3.org/2000/svg">
<path d="M439.646 381.216C439.646 381.216 504.417 449.523 469.685 518.695C411.485 572.303 316.109 562.792 251.907 562.792C187.705 562.792 118.485 564.653 77.3089 541.176C38.3534 518.965 23.8032 461.628 52.9028 414.937C144.895 379.487 126.966 308.586 251.907 308.586C376.848 308.586 439.646 381.216 439.646 381.216Z" fill="#FEFEFE"/>
<path d="M353.541 314.014C345.171 331.931 339.141 340.474 311.045 329.337C282.948 318.201 298.193 314.014 326.872 252.624C355.55 191.233 442.717 80.5587 541.281 80.5587C692.411 88.3405 388.581 239.005 353.541 314.014Z" fill="url(#paint0_linear_118_713)"/>
<path d="M201.217 323.285C199.765 318.962 187.137 323.784 186.198 324.091C157.373 333.518 162.322 358.748 138.048 295.767C113.774 232.786 96.0222 97.0358 168.309 35.3181C284.89 -53.6081 171.558 246.333 201.217 323.285Z" fill="url(#paint1_linear_118_713)"/>
<path d="M298.589 287.226C295.642 292.606 293.016 297.403 291.026 301.586C278.711 300.055 265.671 299.199 251.907 299.199C234.361 299.199 219.358 300.558 206.297 303.063C205.72 297.771 205.442 291.801 205.456 285.19C205.488 270.344 206.976 253.088 209.273 234.47C211.567 215.876 214.637 196.153 217.781 176.38C218.161 173.984 218.544 171.587 218.925 169.191C221.686 151.873 224.436 134.621 226.659 118.369C229.187 99.8876 231.074 82.4235 231.516 67.338C231.95 52.5067 231.038 38.8959 227.264 28.7135C225.336 23.5113 222.443 18.5965 218.021 14.9972C213.43 11.2597 207.871 9.49986 201.794 9.61869C190.478 9.84 177.424 16.559 162.616 27.8546L162.41 28.0113L162.213 28.1792C123.14 61.54 109.185 114.123 107.586 164.773C105.98 215.616 116.725 266.545 129.289 299.143C135.325 314.803 139.764 325.581 143.485 332.523C143.492 332.535 143.498 332.548 143.505 332.561C139.999 335.544 136.684 338.626 133.483 341.76C128.913 346.233 124.602 350.759 120.304 355.271C102.41 374.057 84.7384 392.609 49.5274 406.178L46.5973 407.308L44.9364 409.972C13.3932 460.584 28.482 524.142 72.6594 549.331C95.0844 562.117 124.375 567.646 155.215 570.145C181.955 572.311 210.859 572.253 238.775 572.197C243.181 572.188 247.562 572.179 251.907 572.179C259.659 572.179 268.003 572.326 276.774 572.48C303.46 572.949 334.101 573.488 364.077 570.177C404.106 565.756 444.824 554.357 476.044 525.6L477.305 524.439L478.073 522.907C497.23 484.756 488.688 447.16 476.216 420.088C469.954 406.496 462.573 395.241 456.774 387.392C453.867 383.457 451.337 380.351 449.512 378.205C448.6 377.132 447.862 376.297 447.339 375.717C447.078 375.427 446.871 375.201 446.722 375.04C446.69 375.006 446.661 374.974 446.635 374.946C446.623 374.933 446.611 374.921 446.601 374.909C446.596 374.904 446.59 374.898 446.585 374.892C446.551 374.853 446.511 374.808 446.466 374.758C446.31 374.583 446.092 374.342 445.812 374.038C445.251 373.43 444.442 372.572 443.383 371.5C441.266 369.356 438.151 366.353 434.037 362.781C425.813 355.638 413.579 346.197 397.338 336.78C386.978 330.773 374.99 324.779 361.383 319.399C361.607 318.924 361.828 318.453 362.045 317.987C365.712 310.138 373.337 300.52 384.489 289.419C395.503 278.456 409.352 266.632 424.768 254.322C440.165 242.026 456.955 229.38 473.818 216.749C475.625 215.395 477.434 214.041 479.241 212.688C494.255 201.448 509.209 190.253 523.004 179.473C538.445 167.407 552.637 155.706 564.01 144.861C575.188 134.202 584.441 123.638 589.112 113.796C591.487 108.792 593.041 103.23 592.408 97.5285C591.738 91.506 588.745 86.3999 584.008 82.5004C575.371 75.3906 560.799 72.1643 541.763 71.1842L541.522 71.1718H541.281C488.538 71.1718 439.898 100.675 401.449 136.722C362.869 172.892 333.205 216.888 318.367 248.651C311.32 263.736 305.098 275.31 300.11 284.444C299.595 285.388 299.087 286.315 298.589 287.226Z" stroke="url(#paint2_linear_118_713)" stroke-width="18.774"/>
<path d="M438.163 381.318C438.163 381.318 509.095 456.884 469.573 520.345C413.113 574.867 328.423 566.776 249.378 566.776C185.019 566.776 185.29 566.855 233.382 563.386C238.086 563.046 397.085 573.241 415.905 486.698C439.504 378.178 358.541 337.205 349.131 325.954C403.709 340.47 438.163 381.318 438.163 381.318Z" fill="#EBEBEB" fill-opacity="0.55"/>
<path d="M223.41 62.0014C223.41 111.023 217.662 120.483 216.704 125.643C215.746 130.804 129.533 99.8426 131.449 83.5021C141.557 59.4217 175.545 19 203.325 19C220.138 21.5805 222.981 37.061 223.41 62.0014Z" fill="#FFE354"/>
<path d="M561.533 134.902C520.486 171.194 499.331 187.361 500.31 184.698C501.289 182.035 467.082 104.348 481.367 92.7651C507.811 80.2981 560.65 71.5856 581.213 89.134C591.627 101.775 580.855 115.105 561.533 134.902Z" fill="#FFE354"/>
<g filter="url(#filter0_f_118_713)">
<ellipse cx="123.439" cy="445.169" rx="62.4234" ry="32.8544" fill="#FECDDC" fill-opacity="0.75"/>
</g>
<g filter="url(#filter1_f_118_713)">
<ellipse cx="372.194" cy="447.985" rx="62.4234" ry="33.7931" fill="#FECDDC" fill-opacity="0.75"/>
</g>
<path d="M418.658 246.404C355.765 292.232 350.133 318.169 347.317 325.086C331.359 316.44 434.729 211.868 481.551 173.773C528.372 135.679 557.586 113.247 579.176 98.5477C605.46 110.653 481.551 200.576 418.658 246.404Z" fill="url(#paint3_linear_118_713)" fill-opacity="0.5"/>
<path d="M200.099 222.755C189.64 300.699 196.201 307.694 198.065 315.572C179.885 318.907 183.403 200.148 191.15 142.303C198.896 84.4573 208.882 49.3501 214.514 24.8474C234.165 63.3457 210.557 144.811 200.099 222.755Z" fill="url(#paint4_linear_118_713)" fill-opacity="0.5"/>
<g filter="url(#filter2_d_118_713)">
<path d="M122.481 426.66C122.481 408.785 137.658 393.991 156.762 393.991C175.866 393.991 191.043 408.785 191.043 426.66C191.043 428.754 190.834 429.96 190.63 430.595C190.45 430.563 190.205 430.508 189.886 430.412C188.862 430.105 187.552 429.531 185.852 428.684C184.937 428.228 183.912 427.692 182.802 427.112C180.044 425.67 176.766 423.955 173.374 422.527C168.502 420.477 162.855 418.756 156.762 418.756C150.669 418.756 145.022 420.477 140.15 422.527C136.758 423.955 133.479 425.67 130.722 427.112C129.612 427.692 128.587 428.228 127.672 428.684C125.972 429.531 124.662 430.105 123.638 430.412C123.318 430.508 123.074 430.563 122.894 430.595C122.689 429.96 122.481 428.754 122.481 426.66Z" fill="white" stroke="url(#paint5_linear_118_713)" stroke-width="8.41073"/>
<path d="M309.282 426.661C309.282 408.785 324.459 393.991 343.563 393.991C362.668 393.991 377.844 408.785 377.844 426.661C377.844 428.754 377.636 429.96 377.431 430.595C377.251 430.564 377.007 430.508 376.687 430.412C375.663 430.105 374.353 429.531 372.653 428.684C371.738 428.229 370.713 427.692 369.603 427.112C366.846 425.67 363.567 423.955 360.175 422.528C355.303 420.477 349.656 418.757 343.563 418.757C337.47 418.757 331.823 420.477 326.951 422.528C323.559 423.955 320.281 425.67 317.523 427.112C316.413 427.692 315.388 428.229 314.474 428.684C312.773 429.531 311.463 430.105 310.439 430.412C310.12 430.508 309.875 430.564 309.695 430.595C309.491 429.96 309.282 428.754 309.282 426.661Z" fill="white" stroke="url(#paint6_linear_118_713)" stroke-width="8.41073"/>
</g>
<path d="M242.623 751.184C579.66 617.205 407.857 356.705 242.623 504.32C95.1992 352.786 -103.201 599.649 242.623 751.184Z" fill="#FECDDC" stroke="#D7658C" stroke-width="13.1418"/>
<g filter="url(#filter3_f_118_713)">
<path d="M188.209 579.872C110.472 600.399 91.6643 582.926 57.2603 552.65C87.7679 660.514 163.802 713.255 243.11 744.613C329.707 712.284 397.428 649.63 424.76 572.832C342.191 482.515 285.379 554.214 188.209 579.872Z" fill="url(#paint7_linear_118_713)"/>
</g>
<path d="M141.642 538.187C115.656 561.322 101.896 587.085 84.0196 569.74C66.1431 552.395 72.7172 519.58 98.7031 496.445C124.689 473.31 160.247 468.616 178.123 485.961C196 503.306 167.628 515.052 141.642 538.187Z" fill="url(#paint8_linear_118_713)"/>
<g filter="url(#filter4_f_118_713)">
<ellipse cx="31.7557" cy="21.4586" rx="31.7557" ry="21.4586" transform="matrix(0.941419 -0.337239 0.38307 0.923719 274.1 495.489)" fill="url(#paint9_linear_118_713)" fill-opacity="0.8"/>
</g>
<g filter="url(#filter5_f_118_713)">
<ellipse cx="11.8456" cy="8.00453" rx="11.8456" ry="8.00453" transform="matrix(0.941419 -0.337239 0.38307 0.923719 350.529 482.06)" fill="#FBFFFF" fill-opacity="0.8"/>
</g>
<ellipse cx="4.82105" cy="4.26416" rx="4.82105" ry="4.26416" transform="matrix(0.941419 -0.337239 0.38307 0.923719 359.817 559.483)" fill="#FBFFFF" fill-opacity="0.25"/>
<path d="M142.001 658.481C142.759 660.309 141.666 662.403 139.559 663.158C137.452 663.913 135.13 663.042 134.371 661.214C133.613 659.386 134.706 657.292 136.813 656.537C138.92 655.782 141.242 656.653 142.001 658.481Z" fill="#FBFFFF" fill-opacity="0.25"/>
<path d="M144.172 658.987C143.655 657.741 142.073 657.148 140.637 657.662C139.201 658.177 138.456 659.604 138.973 660.85C139.49 662.096 141.073 662.689 142.508 662.175C143.944 661.66 144.689 660.233 144.172 658.987Z" fill="#FBFFFF" fill-opacity="0.25"/>
<ellipse cx="6.02211" cy="5.32648" rx="6.02211" ry="5.32648" transform="matrix(0.941419 -0.337239 0.38307 0.923719 294.306 605.568)" fill="#FBFFFF" fill-opacity="0.25"/>
<ellipse cx="2.32325" cy="2.05489" rx="2.32325" ry="2.05489" transform="matrix(0.941419 -0.337239 0.38307 0.923719 176.418 631.214)" fill="#FBFFFF" fill-opacity="0.25"/>
<ellipse cx="3.55721" cy="3.1463" rx="3.55721" ry="3.1463" transform="matrix(0.941419 -0.337239 0.38307 0.923719 179.192 629.468)" fill="#FBFFFF" fill-opacity="0.25"/>
<ellipse cx="6.40069" cy="5.66133" rx="6.40069" ry="5.66133" transform="matrix(0.941419 -0.337239 0.38307 0.923719 301.865 572.258)" fill="#FBFFFF" fill-opacity="0.25"/>
<ellipse cx="4.052" cy="3.58394" rx="4.052" ry="3.58394" transform="matrix(0.941419 -0.337239 0.38307 0.923719 260.711 641.708)" fill="#FBFFFF" fill-opacity="0.25"/>
<ellipse cx="2.94769" cy="2.60719" rx="2.94769" ry="2.60719" transform="matrix(0.941419 -0.337239 0.38307 0.923719 301.773 579.503)" fill="#FBFFFF" fill-opacity="0.25"/>
<ellipse cx="4.052" cy="3.58394" rx="4.052" ry="3.58394" transform="matrix(0.941419 -0.337239 0.38307 0.923719 332.941 590.969)" fill="#FBFFFF" fill-opacity="0.25"/>
<ellipse cx="3.42075" cy="3.02561" rx="3.42075" ry="3.02561" transform="matrix(0.941419 -0.337239 0.38307 0.923719 365.697 553.074)" fill="#FBFFFF" fill-opacity="0.25"/>
<ellipse cx="3.42075" cy="3.02561" rx="3.42075" ry="3.02561" transform="matrix(0.941419 -0.337239 0.38307 0.923719 287.587 550.733)" fill="#FBFFFF" fill-opacity="0.25"/>
<ellipse cx="3.42075" cy="3.02561" rx="3.42075" ry="3.02561" transform="matrix(0.941419 -0.337239 0.38307 0.923719 282.499 604.397)" fill="#FBFFFF" fill-opacity="0.25"/>
<ellipse cx="3.42075" cy="3.02561" rx="3.42075" ry="3.02561" transform="matrix(0.941419 -0.337239 0.38307 0.923719 250.632 562.442)" fill="#FBFFFF" fill-opacity="0.25"/>
<ellipse cx="2.08959" cy="1.84821" rx="2.08959" ry="1.84821" transform="matrix(0.941419 -0.337239 0.38307 0.923719 269.172 586.474)" fill="#FBFFFF" fill-opacity="0.25"/>
<ellipse cx="1.54103" cy="1.36302" rx="1.54103" ry="1.36302" transform="matrix(0.941419 -0.337239 0.38307 0.923719 240.776 641.797)" fill="#FBFFFF" fill-opacity="0.25"/>
<ellipse cx="2.92144" cy="2.58397" rx="2.92144" ry="2.58397" transform="matrix(0.941419 -0.337239 0.38307 0.923719 252.65 618.68)" fill="#FBFFFF" fill-opacity="0.25"/>
<ellipse cx="4.052" cy="3.58394" rx="4.052" ry="3.58394" transform="matrix(0.941419 -0.337239 0.38307 0.923719 293.467 611.265)" fill="#FBFFFF" fill-opacity="0.25"/>
<path d="M382.865 544.325L385.176 558.163C386.387 565.416 392.151 571.053 399.429 572.103L415.201 574.378L399.429 576.653C392.151 577.703 386.387 583.34 385.176 590.594L382.865 604.431L380.554 590.594C379.343 583.34 373.579 577.703 366.301 576.653L350.529 574.378L366.301 572.103C373.579 571.053 379.343 565.416 380.554 558.163L382.865 544.325Z" fill="white"/>
<path d="M129.293 568.138L131.548 581.644C132.288 586.076 135.811 589.521 140.259 590.163L155.329 592.337L140.259 594.511C135.811 595.152 132.288 598.597 131.548 603.03L129.293 616.535L127.038 603.03C126.297 598.597 122.775 595.152 118.327 594.511L103.256 592.337L118.327 590.163C122.775 589.521 126.297 586.076 127.038 581.644L129.293 568.138Z" fill="white" fill-opacity="0.6"/>
<path d="M178.97 570.016L179.702 574.399C180.442 578.832 183.964 582.276 188.412 582.918L193.668 583.676L188.412 584.434C183.964 585.076 180.442 588.521 179.702 592.953L178.97 597.337L178.238 592.953C177.498 588.521 173.976 585.076 169.528 584.434L164.272 583.676L169.528 582.918C173.976 582.276 177.498 578.832 178.238 574.399L178.97 570.016Z" fill="white" fill-opacity="0.6"/>
<path d="M431.158 477.974L437.138 513.78C437.743 517.407 440.625 520.225 444.264 520.75L483.231 526.371L444.264 531.992C440.625 532.517 437.743 535.335 437.138 538.962L431.158 574.768L425.179 538.962C424.574 535.335 421.692 532.517 418.052 531.992L379.085 526.371L418.052 520.75C421.692 520.225 424.574 517.407 425.179 513.78L431.158 477.974Z" fill="white"/>
<path d="M43.1746 334.437C137.712 345.782 135.467 260.42 77.6706 274.688C65.6831 218.866 -13.4422 252.847 43.1746 334.437Z" fill="#FECDDC" stroke="white" stroke-width="8.44828"/>
<g filter="url(#filter6_f_118_713)">
<path d="M52.4436 298.136C34.2595 293.499 32.2627 275.948 29.0821 265.465C21.8843 292.113 31.9563 316.99 44.0406 332.922C65.4676 336.06 91.5143 330.495 106.512 317.223C101.062 288.284 75.1736 303.932 52.4436 298.136Z" fill="url(#paint10_linear_118_713)"/>
</g>
<path d="M50.2228 269.77C41.1446 271.995 34.4494 276.443 32.8519 269.923C31.2543 263.404 37.3186 256.315 46.3969 254.091C55.4751 251.866 64.1295 255.348 65.7271 261.868C67.3246 268.388 59.301 267.546 50.2228 269.77Z" fill="url(#paint11_linear_118_713)"/>
<g filter="url(#filter7_f_118_713)">
<ellipse cx="93.286" cy="283.794" rx="8.32204" ry="5.93688" transform="rotate(8.92181 93.286 283.794)" fill="url(#paint12_linear_118_713)" fill-opacity="0.8"/>
</g>
<g filter="url(#filter8_f_118_713)">
<ellipse cx="107.777" cy="285.984" rx="3.1043" ry="2.21459" transform="rotate(8.92181 107.777 285.984)" fill="#FBFFFF" fill-opacity="0.8"/>
</g>
<ellipse cx="98.9138" cy="318.536" rx="1.26343" ry="1.17975" transform="rotate(8.92181 98.9138 318.536)" fill="#FBFFFF" fill-opacity="0.25"/>
<path d="M33.4941 298.932C33.4092 299.473 32.8707 299.838 32.2913 299.747C31.7119 299.656 31.3111 299.143 31.396 298.602C31.481 298.061 32.0195 297.697 32.5988 297.787C33.1782 297.878 33.579 298.391 33.4941 298.932Z" fill="#FBFFFF" fill-opacity="0.25"/>
<path d="M33.9115 299.336C33.9694 298.968 33.6962 298.618 33.3014 298.556C32.9066 298.494 32.5396 298.743 32.4817 299.112C32.4239 299.48 32.697 299.83 33.0918 299.892C33.4866 299.954 33.8536 299.705 33.9115 299.336Z" fill="#FBFFFF" fill-opacity="0.25"/>
<ellipse cx="78.0029" cy="321.521" rx="1.57818" ry="1.47366" transform="rotate(8.92181 78.0029 321.521)" fill="#FBFFFF" fill-opacity="0.25"/>
<ellipse cx="45.5597" cy="297.458" rx="0.608842" ry="0.568519" transform="rotate(8.92181 45.5597 297.458)" fill="#FBFFFF" fill-opacity="0.25"/>
<ellipse cx="46.7005" cy="297.745" rx="0.932217" ry="0.870477" transform="rotate(8.92181 46.7005 297.745)" fill="#FBFFFF" fill-opacity="0.25"/>
<ellipse cx="84.4415" cy="314.547" rx="1.67739" ry="1.5663" transform="rotate(8.92181 84.4415 314.547)" fill="#FBFFFF" fill-opacity="0.25"/>
<ellipse cx="64.9602" cy="325.349" rx="1.06188" ry="0.991557" transform="rotate(8.92181 64.9602 325.349)" fill="#FBFFFF" fill-opacity="0.25"/>
<ellipse cx="82.6454" cy="315.314" rx="0.772484" ry="0.721323" transform="rotate(8.92181 82.6454 315.314)" fill="#FBFFFF" fill-opacity="0.25"/>
<ellipse cx="88.2981" cy="322.449" rx="1.06188" ry="0.991557" transform="rotate(8.92181 88.2981 322.449)" fill="#FBFFFF" fill-opacity="0.25"/>
<ellipse cx="100.822" cy="317.353" rx="0.896455" ry="0.837084" transform="rotate(8.92181 100.822 317.353)" fill="#FBFFFF" fill-opacity="0.25"/>
<ellipse cx="83.5795" cy="306.642" rx="0.896455" ry="0.837084" transform="rotate(8.92181 83.5795 306.642)" fill="#FBFFFF" fill-opacity="0.25"/>
<ellipse cx="73.412" cy="305.054" rx="0.896455" ry="0.837084" transform="rotate(8.92181 73.412 305.054)" fill="#FBFFFF" fill-opacity="0.25"/>
<ellipse cx="73.6298" cy="304.677" rx="0.896455" ry="0.837084" transform="rotate(8.92181 73.6298 304.677)" fill="#FBFFFF" fill-opacity="0.25"/>
<ellipse cx="74.1482" cy="312.525" rx="0.547606" ry="0.511339" transform="rotate(8.92181 74.1482 312.525)" fill="#FBFFFF" fill-opacity="0.25"/>
<ellipse cx="58.3849" cy="308.157" rx="0.403848" ry="0.377102" transform="rotate(8.92181 58.3849 308.157)" fill="#FBFFFF" fill-opacity="0.25"/>
<ellipse cx="66.1152" cy="318.409" rx="0.765604" ry="0.714899" transform="rotate(8.92181 66.1152 318.409)" fill="#FBFFFF" fill-opacity="0.25"/>
<ellipse cx="76.5828" cy="322.235" rx="1.06188" ry="0.991557" transform="rotate(8.92181 76.5828 322.235)" fill="#FBFFFF" fill-opacity="0.25"/>
<path d="M103.628 302.584L103.202 303.684C101.872 307.115 102.917 311.011 105.783 313.318L106.702 314.057L105.602 313.631C102.171 312.302 98.2748 313.346 95.9682 316.213L95.2287 317.132L95.6548 316.032C96.9841 312.601 95.94 308.704 93.0734 306.398L92.1545 305.658L93.2543 306.084C96.6852 307.414 100.582 306.37 102.888 303.503L103.628 302.584Z" fill="white"/>
<path d="M41.0067 282.552L40.2304 284.556C39.4181 286.652 40.0562 289.034 41.808 290.443L43.4821 291.79L41.4784 291.014C39.3818 290.202 37.0005 290.84 35.5909 292.592L34.2438 294.266L35.0201 292.262C35.8324 290.165 35.1944 287.784 33.4426 286.375L31.7685 285.027L33.7721 285.804C35.8688 286.616 38.25 285.978 39.6596 284.226L41.0067 282.552Z" fill="white" fill-opacity="0.6"/>
<path d="M41.0968 295.703V295.703C40.3773 297.56 40.9424 299.67 42.4942 300.918V300.918V300.918C40.637 300.199 38.5277 300.764 37.279 302.316V302.316V302.316C37.9986 300.458 37.4334 298.349 35.8817 297.1V297.1V297.1C37.7389 297.82 39.8482 297.255 41.0968 295.703V295.703Z" fill="white" fill-opacity="0.6"/>
<path d="M508.282 371.831C569.34 323.858 518.821 275.928 493.72 317.484C454.617 292.206 428.585 357.43 508.282 371.831Z" fill="#FECDDC" stroke="white" stroke-width="7.50958"/>
<g filter="url(#filter9_f_118_713)">
<path d="M492.694 345.553C479.534 353.365 468.261 344.395 460.383 340.184C471.598 359.702 491.752 368.239 507.908 370.458C522.074 359.912 533.885 341.683 534.88 325.38C515.049 311.836 509.144 335.788 492.694 345.553Z" fill="url(#paint13_linear_118_713)"/>
</g>
<path d="M475.056 330.476C471.104 336.994 469.808 343.42 465.127 340.582C460.446 337.743 459.856 330.159 463.808 323.641C467.76 317.123 474.759 314.14 479.44 316.979C484.121 319.817 479.008 323.958 475.056 330.476Z" fill="url(#paint14_linear_118_713)"/>
<g filter="url(#filter10_f_118_713)">
<ellipse cx="507.976" cy="313.731" rx="6.78677" ry="4.84163" transform="rotate(-36.0782 507.976 313.731)" fill="url(#paint15_linear_118_713)" fill-opacity="0.8"/>
</g>
<g filter="url(#filter11_f_118_713)">
<ellipse cx="517.595" cy="306.637" rx="2.53161" ry="1.80603" transform="rotate(-36.0782 517.595 306.637)" fill="#FBFFFF" fill-opacity="0.8"/>
</g>
<ellipse cx="531.256" cy="330.519" rx="1.03035" ry="0.962107" transform="rotate(-36.0782 531.256 330.519)" fill="#FBFFFF" fill-opacity="0.25"/>
<path d="M482.226 356.939C482.489 357.3 482.388 357.821 482.002 358.103C481.615 358.384 481.089 358.32 480.826 357.959C480.563 357.598 480.663 357.077 481.05 356.796C481.436 356.514 481.963 356.578 482.226 356.939Z" fill="#FBFFFF" fill-opacity="0.25"/>
<path d="M482.7 356.931C482.521 356.685 482.162 356.642 481.899 356.834C481.635 357.025 481.567 357.38 481.746 357.626C481.926 357.872 482.284 357.916 482.548 357.724C482.811 357.532 482.879 357.177 482.7 356.931Z" fill="#FBFFFF" fill-opacity="0.25"/>
<ellipse cx="520.918" cy="344.299" rx="1.28703" ry="1.20179" transform="rotate(-36.0782 520.918 344.299)" fill="#FBFFFF" fill-opacity="0.25"/>
<ellipse cx="488.334" cy="349.132" rx="0.49652" ry="0.463637" transform="rotate(-36.0782 488.334 349.132)" fill="#FBFFFF" fill-opacity="0.25"/>
<ellipse cx="489.156" cy="348.639" rx="0.760239" ry="0.709889" transform="rotate(-36.0782 489.156 348.639)" fill="#FBFFFF" fill-opacity="0.25"/>
<ellipse cx="520.61" cy="336.565" rx="1.36794" ry="1.27734" transform="rotate(-36.0782 520.61 336.565)" fill="#FBFFFF" fill-opacity="0.25"/>
<ellipse cx="515.605" cy="354.027" rx="0.865984" ry="0.808631" transform="rotate(-36.0782 515.605 354.027)" fill="#FBFFFF" fill-opacity="0.25"/>
<ellipse cx="520.017" cy="338.043" rx="0.629973" ry="0.588251" transform="rotate(-36.0782 520.017 338.043)" fill="#FBFFFF" fill-opacity="0.25"/>
<ellipse cx="527.39" cy="338.897" rx="0.865984" ry="0.808631" transform="rotate(-36.0782 527.39 338.897)" fill="#FBFFFF" fill-opacity="0.25"/>
<ellipse cx="531.674" cy="328.737" rx="0.731074" ry="0.682656" transform="rotate(-36.0782 531.674 328.737)" fill="#FBFFFF" fill-opacity="0.25"/>
<ellipse cx="515.554" cy="332.503" rx="0.731074" ry="0.682656" transform="rotate(-36.0782 515.554 332.503)" fill="#FBFFFF" fill-opacity="0.25"/>
<ellipse cx="508.776" cy="337.451" rx="0.731074" ry="0.682656" transform="rotate(-36.0782 508.776 337.451)" fill="#FBFFFF" fill-opacity="0.25"/>
<ellipse cx="508.683" cy="337.107" rx="0.731074" ry="0.682656" transform="rotate(-36.0782 508.683 337.107)" fill="#FBFFFF" fill-opacity="0.25"/>
<ellipse cx="513.508" cy="341.334" rx="0.446582" ry="0.417005" transform="rotate(-36.0782 513.508 341.334)" fill="#FBFFFF" fill-opacity="0.25"/>
<ellipse cx="501.899" cy="347.905" rx="0.329345" ry="0.307533" transform="rotate(-36.0782 501.899 347.905)" fill="#FBFFFF" fill-opacity="0.25"/>
<ellipse cx="512.269" cy="349.36" rx="0.624363" ry="0.583012" transform="rotate(-36.0782 512.269 349.36)" fill="#FBFFFF" fill-opacity="0.25"/>
<ellipse cx="520.511" cy="345.53" rx="0.865984" ry="0.808631" transform="rotate(-36.0782 520.511 345.53)" fill="#FBFFFF" fill-opacity="0.25"/>
<path d="M524.775 318.602V318.602C526.218 321.871 529.611 323.83 533.164 323.446V323.446V323.446C529.895 324.889 527.936 328.282 528.32 331.835V331.835V331.835C526.877 328.566 523.484 326.607 519.931 326.991V326.991V326.991C523.2 325.548 525.159 322.155 524.775 318.602V318.602Z" fill="white"/>
<path d="M477.112 343.161L477.538 344.127C478.447 346.184 480.582 347.417 482.817 347.175L483.867 347.061L482.901 347.488C480.844 348.396 479.611 350.531 479.853 352.766L479.967 353.816L479.54 352.85C478.632 350.793 476.497 349.561 474.262 349.803L473.212 349.916L474.178 349.49C476.235 348.582 477.468 346.447 477.226 344.211L477.112 343.161Z" fill="white" fill-opacity="0.6"/>
<path d="M484.748 350.693V350.693C485.404 352.179 486.946 353.069 488.561 352.894V352.894V352.894C487.075 353.551 486.185 355.093 486.36 356.708V356.708V356.708C485.704 355.222 484.161 354.331 482.547 354.506V354.506V354.506C484.032 353.85 484.923 352.308 484.748 350.693V350.693Z" fill="white" fill-opacity="0.6"/>
<path d="M483.253 250.885C597.969 264.651 595.245 161.069 525.112 178.383C510.566 110.645 414.551 151.88 483.253 250.885Z" fill="#FECDDC" stroke="white" stroke-width="8.44828"/>
<g filter="url(#filter12_f_118_713)">
<path d="M494.499 206.835C472.434 201.209 470.011 179.911 466.151 167.191C457.417 199.526 469.639 229.713 484.303 249.046C510.303 252.854 541.91 246.102 560.109 229.996C553.495 194.88 522.081 213.869 494.499 206.835Z" fill="url(#paint16_linear_118_713)"/>
</g>
<path d="M491.805 172.415C480.789 175.114 472.665 180.512 470.726 172.601C468.787 164.69 476.146 156.088 487.162 153.389C498.178 150.69 508.68 154.915 510.618 162.826C512.557 170.737 502.821 169.716 491.805 172.415Z" fill="url(#paint17_linear_118_713)"/>
<g filter="url(#filter13_f_118_713)">
<ellipse cx="544.06" cy="189.433" rx="10.0984" ry="7.20411" transform="rotate(8.92182 544.06 189.433)" fill="url(#paint18_linear_118_713)" fill-opacity="0.8"/>
</g>
<g filter="url(#filter14_f_118_713)">
<ellipse cx="561.645" cy="192.09" rx="3.76692" ry="2.68729" transform="rotate(8.92182 561.645 192.09)" fill="#FBFFFF" fill-opacity="0.8"/>
</g>
<ellipse cx="550.889" cy="231.59" rx="1.5331" ry="1.43157" transform="rotate(8.92182 550.889 231.59)" fill="#FBFFFF" fill-opacity="0.25"/>
<path d="M471.505 207.801C471.402 208.458 470.749 208.9 470.046 208.79C469.343 208.68 468.856 208.058 468.959 207.402C469.062 206.745 469.716 206.302 470.419 206.413C471.122 206.523 471.608 207.145 471.505 207.801Z" fill="#FBFFFF" fill-opacity="0.25"/>
<path d="M472.013 208.292C472.083 207.845 471.752 207.421 471.273 207.346C470.794 207.271 470.348 207.572 470.278 208.02C470.208 208.467 470.539 208.891 471.018 208.966C471.497 209.041 471.943 208.74 472.013 208.292Z" fill="#FBFFFF" fill-opacity="0.25"/>
<ellipse cx="525.515" cy="235.213" rx="1.91504" ry="1.78821" transform="rotate(8.92182 525.515 235.213)" fill="#FBFFFF" fill-opacity="0.25"/>
<ellipse cx="486.146" cy="206.013" rx="0.738799" ry="0.689869" transform="rotate(8.92182 486.146 206.013)" fill="#FBFFFF" fill-opacity="0.25"/>
<ellipse cx="487.531" cy="206.36" rx="1.1312" ry="1.05628" transform="rotate(8.92182 487.531 206.36)" fill="#FBFFFF" fill-opacity="0.25"/>
<ellipse cx="533.328" cy="226.75" rx="2.03543" ry="1.90063" transform="rotate(8.92182 533.328 226.75)" fill="#FBFFFF" fill-opacity="0.25"/>
<ellipse cx="509.688" cy="239.857" rx="1.28854" ry="1.2032" transform="rotate(8.92182 509.688 239.857)" fill="#FBFFFF" fill-opacity="0.25"/>
<ellipse cx="531.149" cy="227.681" rx="0.93737" ry="0.87529" transform="rotate(8.92182 531.149 227.681)" fill="#FBFFFF" fill-opacity="0.25"/>
<ellipse cx="538.008" cy="236.338" rx="1.28854" ry="1.2032" transform="rotate(8.92182 538.008 236.338)" fill="#FBFFFF" fill-opacity="0.25"/>
<ellipse cx="553.205" cy="230.155" rx="1.0878" ry="1.01576" transform="rotate(8.92182 553.205 230.155)" fill="#FBFFFF" fill-opacity="0.25"/>
<ellipse cx="532.281" cy="217.157" rx="1.0878" ry="1.01576" transform="rotate(8.92182 532.281 217.157)" fill="#FBFFFF" fill-opacity="0.25"/>
<ellipse cx="519.944" cy="215.231" rx="1.0878" ry="1.01576" transform="rotate(8.92182 519.944 215.231)" fill="#FBFFFF" fill-opacity="0.25"/>
<ellipse cx="520.209" cy="214.772" rx="1.0878" ry="1.01576" transform="rotate(8.92182 520.209 214.772)" fill="#FBFFFF" fill-opacity="0.25"/>
<ellipse cx="520.837" cy="224.296" rx="0.664492" ry="0.620484" transform="rotate(8.92182 520.837 224.296)" fill="#FBFFFF" fill-opacity="0.25"/>
<ellipse cx="501.71" cy="218.996" rx="0.490049" ry="0.457594" transform="rotate(8.92182 501.71 218.996)" fill="#FBFFFF" fill-opacity="0.25"/>
<ellipse cx="511.09" cy="231.436" rx="0.929022" ry="0.867494" transform="rotate(8.92182 511.09 231.436)" fill="#FBFFFF" fill-opacity="0.25"/>
<ellipse cx="523.791" cy="236.078" rx="1.28854" ry="1.2032" transform="rotate(8.92182 523.791 236.078)" fill="#FBFFFF" fill-opacity="0.25"/>
<path d="M556.609 212.233L555.616 214.798C554.286 218.228 555.331 222.125 558.197 224.432L560.34 226.156L557.775 225.162C554.344 223.833 550.448 224.877 548.141 227.744L546.417 229.886L547.411 227.322C548.74 223.891 547.696 219.994 544.829 217.688L542.687 215.964L545.251 216.957C548.682 218.287 552.579 217.242 554.885 214.376L556.609 212.233Z" fill="white"/>
<path d="M480.622 187.925L479.389 191.108C478.577 193.205 479.215 195.586 480.967 196.996L483.626 199.136L480.443 197.903C478.346 197.09 475.965 197.728 474.556 199.48L472.416 202.139L473.649 198.957C474.461 196.86 473.823 194.479 472.071 193.069L469.412 190.929L472.595 192.162C474.691 192.975 477.073 192.337 478.482 190.585L480.622 187.925Z" fill="white" fill-opacity="0.6"/>
<path d="M480.731 203.884L480.629 204.147C479.817 206.244 480.455 208.625 482.207 210.035L482.427 210.212L482.163 210.11C480.067 209.298 477.685 209.936 476.276 211.687L476.099 211.908L476.201 211.644C477.013 209.547 476.375 207.166 474.623 205.757L474.403 205.579L474.667 205.682C476.763 206.494 479.144 205.856 480.554 204.104L480.731 203.884Z" fill="white" fill-opacity="0.6"/>
<path d="M70.6958 151.163C107.626 101.875 59.0824 75.5255 48.3826 112.516C13.2354 101.177 6.68073 156.491 70.6958 151.163Z" fill="#FECDDC" stroke="white" stroke-width="7.50958"/>
<g filter="url(#filter15_f_118_713)">
<path d="M53.3588 134.231C44.8804 142.918 34.4026 138.36 27.5019 136.751C40.1011 149.401 57.2942 151.805 70.1271 150.188C78.8151 139.201 84.1216 122.81 81.5373 110.116C63.5638 103.81 63.9568 123.373 53.3588 134.231Z" fill="url(#paint19_linear_118_713)"/>
</g>
<path d="M36.7512 126.301C35.0612 132.106 35.3878 137.295 31.2189 136.081C27.0501 134.868 25.0406 129.178 26.7306 123.373C28.4205 117.568 33.17 113.846 37.3388 115.06C41.5077 116.274 38.4411 120.496 36.7512 126.301Z" fill="url(#paint20_linear_118_713)"/>
<g filter="url(#filter16_f_118_713)">
<ellipse cx="58.5341" cy="106.714" rx="5.38298" ry="3.84017" transform="rotate(-51.0782 58.5341 106.714)" fill="url(#paint21_linear_118_713)" fill-opacity="0.8"/>
</g>
<g filter="url(#filter17_f_118_713)">
<ellipse cx="64.4473" cy="99.3041" rx="2.00797" ry="1.43247" transform="rotate(-51.0782 64.4473 99.3041)" fill="#FBFFFF" fill-opacity="0.8"/>
</g>
<ellipse cx="79.8156" cy="114.797" rx="0.817226" ry="0.763102" transform="rotate(-51.0782 79.8156 114.797)" fill="#FBFFFF" fill-opacity="0.25"/>
<path d="M47.676 145.103C47.9516 145.326 47.9818 145.745 47.7435 146.041C47.5051 146.336 47.0885 146.395 46.813 146.172C46.5374 145.949 46.5072 145.53 46.7455 145.235C46.9838 144.94 47.4004 144.881 47.676 145.103Z" fill="#FBFFFF" fill-opacity="0.25"/>
<path d="M48.0381 145C47.8503 144.848 47.5664 144.888 47.404 145.09C47.2416 145.291 47.2622 145.577 47.45 145.728C47.6378 145.88 47.9217 145.84 48.0841 145.639C48.2465 145.438 48.2259 145.152 48.0381 145Z" fill="#FBFFFF" fill-opacity="0.25"/>
<ellipse cx="74.7252" cy="127.476" rx="1.02082" ry="0.953213" transform="rotate(-51.0782 74.7252 127.476)" fill="#FBFFFF" fill-opacity="0.25"/>
<ellipse cx="50.7528" cy="137.868" rx="0.393819" ry="0.367737" transform="rotate(-51.0782 50.7528 137.868)" fill="#FBFFFF" fill-opacity="0.25"/>
<ellipse cx="51.2822" cy="137.321" rx="0.602989" ry="0.563054" transform="rotate(-51.0782 51.2822 137.321)" fill="#FBFFFF" fill-opacity="0.25"/>
<ellipse cx="72.9005" cy="121.614" rx="1.08499" ry="1.01314" transform="rotate(-51.0782 72.9005 121.614)" fill="#FBFFFF" fill-opacity="0.25"/>
<ellipse cx="72.6507" cy="136.02" rx="0.686862" ry="0.641372" transform="rotate(-51.0782 72.6507 136.02)" fill="#FBFFFF" fill-opacity="0.25"/>
<ellipse cx="72.7497" cy="122.868" rx="0.499668" ry="0.466576" transform="rotate(-51.0782 72.7497 122.868)" fill="#FBFFFF" fill-opacity="0.25"/>
<ellipse cx="78.5741" cy="122.009" rx="0.686862" ry="0.641372" transform="rotate(-51.0782 78.5741 122.009)" fill="#FBFFFF" fill-opacity="0.25"/>
<ellipse cx="79.7704" cy="113.346" rx="0.579857" ry="0.541454" transform="rotate(-51.0782 79.7704 113.346)" fill="#FBFFFF" fill-opacity="0.25"/>
<ellipse cx="68.1938" cy="119.54" rx="0.579857" ry="0.541454" transform="rotate(-51.0782 68.1938 119.54)" fill="#FBFFFF" fill-opacity="0.25"/>
<ellipse cx="64.016" cy="124.723" rx="0.579857" ry="0.541454" transform="rotate(-51.0782 64.016 124.723)" fill="#FBFFFF" fill-opacity="0.25"/>
<ellipse cx="63.8749" cy="124.478" rx="0.579857" ry="0.541454" transform="rotate(-51.0782 63.8749 124.478)" fill="#FBFFFF" fill-opacity="0.25"/>
<ellipse cx="68.4384" cy="126.726" rx="0.35421" ry="0.330751" transform="rotate(-51.0782 68.4384 126.726)" fill="#FBFFFF" fill-opacity="0.25"/>
<ellipse cx="60.8939" cy="134.144" rx="0.261222" ry="0.243922" transform="rotate(-51.0782 60.8939 134.144)" fill="#FBFFFF" fill-opacity="0.25"/>
<ellipse cx="69.1372" cy="133.129" rx="0.495218" ry="0.462421" transform="rotate(-51.0782 69.1372 133.129)" fill="#FBFFFF" fill-opacity="0.25"/>
<ellipse cx="74.6649" cy="128.503" rx="0.686862" ry="0.641372" transform="rotate(-51.0782 74.6649 128.503)" fill="#FBFFFF" fill-opacity="0.25"/>
<path d="M72.4046 106.998V106.998C74.1815 109.206 77.1831 110.01 79.826 108.986V108.986V108.986C77.6178 110.763 76.8135 113.765 77.8374 116.408V116.408V116.408C76.0606 114.199 73.059 113.395 70.4161 114.419V114.419V114.419C72.6243 112.642 73.4286 109.641 72.4046 106.998V106.998Z" fill="white"/>
<path d="M40.9305 135.597L40.9659 135.641C42.3755 137.393 44.7568 138.031 46.8534 137.219L46.9061 137.199L46.8621 137.234C45.1103 138.644 44.4722 141.025 45.2845 143.122L45.3049 143.174L45.2695 143.13C43.8599 141.378 41.4786 140.74 39.382 141.553L39.3293 141.573L39.3733 141.538C41.1251 140.128 41.7632 137.747 40.9509 135.65L40.9305 135.597Z" fill="white" fill-opacity="0.6"/>
<path d="M48.3266 139.8V139.8C49.1342 140.804 50.4986 141.169 51.6999 140.704V140.704V140.704C50.6962 141.512 50.3306 142.876 50.796 144.077V144.077V144.077C49.9884 143.074 48.624 142.708 47.4227 143.174V143.174V143.174C48.4264 142.366 48.792 141.001 48.3266 139.8V139.8Z" fill="white" fill-opacity="0.6"/>
<path d="M537.188 468.672C597.221 466.476 587.455 413.494 552.832 428.052C539.889 394.435 493.904 423.37 537.188 468.672Z" fill="#FECDDC" stroke="white" stroke-width="7.50958"/>
<g filter="url(#filter18_f_118_713)">
<path d="M539.407 445.139C527.619 444.031 524.654 433.288 521.644 427.066C519.77 444.38 528.486 458.897 537.579 467.643C551.241 467.499 566.93 461.477 574.976 451.735C568.743 434.233 554.141 446.523 539.407 445.139Z" fill="url(#paint22_linear_118_713)"/>
</g>
<path d="M535.243 427.677C529.803 429.953 526.066 433.382 524.431 429.475C522.796 425.568 525.881 420.556 531.321 418.28C536.761 416.003 542.497 417.325 544.131 421.232C545.766 425.139 540.683 425.401 535.243 427.677Z" fill="url(#paint23_linear_118_713)"/>
<g filter="url(#filter19_f_118_713)">
<ellipse cx="563.456" cy="432.197" rx="5.25053" ry="3.74569" transform="rotate(-0.015741 563.456 432.197)" fill="url(#paint24_linear_118_713)" fill-opacity="0.8"/>
</g>
<g filter="url(#filter20_f_118_713)">
<ellipse cx="572.703" cy="432.141" rx="1.95856" ry="1.39722" transform="rotate(-0.015741 572.703 432.141)" fill="#FBFFFF" fill-opacity="0.8"/>
</g>
<ellipse cx="570.369" cy="453.299" rx="0.797118" ry="0.744326" transform="rotate(-0.015741 570.369 453.299)" fill="#FBFFFF" fill-opacity="0.25"/>
<path d="M527.675 447.492C527.675 447.838 527.375 448.118 527.005 448.118C526.635 448.118 526.335 447.838 526.335 447.493C526.335 447.147 526.634 446.867 527.004 446.867C527.374 446.867 527.674 447.147 527.675 447.492Z" fill="#FBFFFF" fill-opacity="0.25"/>
<path d="M527.975 447.704C527.974 447.468 527.77 447.277 527.518 447.277C527.266 447.277 527.061 447.468 527.061 447.704C527.061 447.939 527.266 448.13 527.518 448.13C527.77 448.13 527.975 447.939 527.975 447.704Z" fill="#FBFFFF" fill-opacity="0.25"/>
<ellipse cx="557.629" cy="457.209" rx="0.995703" ry="0.929759" transform="rotate(-0.015741 557.629 457.209)" fill="#FBFFFF" fill-opacity="0.25"/>
<ellipse cx="535.05" cy="445.391" rx="0.384129" ry="0.358689" transform="rotate(-0.015741 535.05 445.391)" fill="#FBFFFF" fill-opacity="0.25"/>
<ellipse cx="535.789" cy="445.457" rx="0.588152" ry="0.5492" transform="rotate(-0.015741 535.789 445.457)" fill="#FBFFFF" fill-opacity="0.25"/>
<ellipse cx="560.958" cy="452.231" rx="1.0583" ry="0.988208" transform="rotate(-0.015741 560.958 452.231)" fill="#FBFFFF" fill-opacity="0.25"/>
<ellipse cx="549.875" cy="460.872" rx="0.669962" ry="0.625591" transform="rotate(-0.015741 549.875 460.872)" fill="#FBFFFF" fill-opacity="0.25"/>
<ellipse cx="559.914" cy="452.885" rx="0.487374" ry="0.455096" transform="rotate(-0.015741 559.914 452.885)" fill="#FBFFFF" fill-opacity="0.25"/>
<ellipse cx="564.136" cy="456.778" rx="0.669962" ry="0.625591" transform="rotate(-0.015741 564.136 456.778)" fill="#FBFFFF" fill-opacity="0.25"/>
<ellipse cx="571.443" cy="452.374" rx="0.56559" ry="0.528132" transform="rotate(-0.015741 571.443 452.374)" fill="#FBFFFF" fill-opacity="0.25"/>
<ellipse cx="559.646" cy="447.389" rx="0.56559" ry="0.528132" transform="rotate(-0.015741 559.646 447.389)" fill="#FBFFFF" fill-opacity="0.25"/>
<ellipse cx="553.154" cy="447.396" rx="0.56559" ry="0.528132" transform="rotate(-0.015741 553.154 447.396)" fill="#FBFFFF" fill-opacity="0.25"/>
<ellipse cx="553.252" cy="447.139" rx="0.56559" ry="0.528132" transform="rotate(-0.015741 553.252 447.139)" fill="#FBFFFF" fill-opacity="0.25"/>
<ellipse cx="554.345" cy="451.979" rx="0.345494" ry="0.322613" transform="rotate(-0.015741 554.345 451.979)" fill="#FBFFFF" fill-opacity="0.25"/>
<ellipse cx="544.092" cy="450.802" rx="0.254795" ry="0.23792" transform="rotate(-0.015741 544.092 450.802)" fill="#FBFFFF" fill-opacity="0.25"/>
<ellipse cx="549.915" cy="456.434" rx="0.483033" ry="0.451043" transform="rotate(-0.015741 549.915 456.434)" fill="#FBFFFF" fill-opacity="0.25"/>
<ellipse cx="556.814" cy="457.792" rx="0.669962" ry="0.625591" transform="rotate(-0.015741 556.814 457.792)" fill="#FBFFFF" fill-opacity="0.25"/>
<path d="M571.743 442.894V442.894C571.157 445.596 572.387 448.366 574.784 449.744V449.744V449.744C572.082 449.158 569.312 450.388 567.935 452.785V452.785V452.785C568.521 450.083 567.291 447.313 564.894 445.935V445.935V445.935C567.596 446.521 570.366 445.291 571.743 442.894V442.894Z" fill="white"/>
<path d="M530.751 436.547V436.547C530.279 438.722 531.269 440.953 533.199 442.062V442.062V442.062C531.024 441.59 528.793 442.581 527.684 444.511V444.511V444.511C528.156 442.335 527.166 440.105 525.236 438.995V438.995V438.995C527.411 439.467 529.642 438.477 530.751 436.547V436.547Z" fill="white" fill-opacity="0.6"/>
<path d="M532.096 444.735V444.735C531.83 445.963 532.389 447.222 533.479 447.848V447.848V447.848C532.25 447.582 530.991 448.141 530.365 449.23V449.23V449.23C530.632 448.002 530.073 446.743 528.983 446.117V446.117V446.117C530.211 446.383 531.47 445.824 532.096 444.735V444.735Z" fill="white" fill-opacity="0.6"/>
<defs>
<filter id="filter0_f_118_713" x="47.3101" y="398.609" width="152.257" height="93.1187" filterUnits="userSpaceOnUse" color-interpolation-filters="sRGB">
<feFlood flood-opacity="0" result="BackgroundImageFix"/>
<feBlend mode="normal" in="SourceGraphic" in2="BackgroundImageFix" result="shape"/>
<feGaussianBlur stdDeviation="6.85249" result="effect1_foregroundBlur_118_713"/>
</filter>
<filter id="filter1_f_118_713" x="296.066" y="400.487" width="152.257" height="94.9962" filterUnits="userSpaceOnUse" color-interpolation-filters="sRGB">
<feFlood flood-opacity="0" result="BackgroundImageFix"/>
<feBlend mode="normal" in="SourceGraphic" in2="BackgroundImageFix" result="shape"/>
<feGaussianBlur stdDeviation="6.85249" result="effect1_foregroundBlur_118_713"/>
</filter>
<filter id="filter2_d_118_713" x="112.174" y="379.929" width="275.977" height="57.2607" filterUnits="userSpaceOnUse" color-interpolation-filters="sRGB">
<feFlood flood-opacity="0" result="BackgroundImageFix"/>
<feColorMatrix in="SourceAlpha" type="matrix" values="0 0 0 0 0 0 0 0 0 0 0 0 0 0 0 0 0 0 127 0" result="hardAlpha"/>
<feOffset dy="-3.75479"/>
<feGaussianBlur stdDeviation="3.05077"/>
<feComposite in2="hardAlpha" operator="out"/>
<feColorMatrix type="matrix" values="0 0 0 0 0 0 0 0 0 0 0 0 0 0 0 0 0 0 0.19 0"/>
<feBlend mode="normal" in2="BackgroundImageFix" result="effect1_dropShadow_118_713"/>
<feBlend mode="normal" in="SourceGraphic" in2="effect1_dropShadow_118_713" result="shape"/>
</filter>
<filter id="filter3_f_118_713" x="51.1587" y="522.469" width="379.703" height="228.246" filterUnits="userSpaceOnUse" color-interpolation-filters="sRGB">
<feFlood flood-opacity="0" result="BackgroundImageFix"/>
<feBlend mode="normal" in="SourceGraphic" in2="BackgroundImageFix" result="shape"/>
<feGaussianBlur stdDeviation="3.05077" result="effect1_foregroundBlur_118_713"/>
</filter>
<filter id="filter4_f_118_713" x="277.448" y="478.313" width="69.535" height="52.5777" filterUnits="userSpaceOnUse" color-interpolation-filters="sRGB">
<feFlood flood-opacity="0" result="BackgroundImageFix"/>
<feBlend mode="normal" in="SourceGraphic" in2="BackgroundImageFix" result="shape"/>
<feGaussianBlur stdDeviation="1.8774" result="effect1_foregroundBlur_118_713"/>
</filter>
<filter id="filter5_f_118_713" x="349.424" y="473.299" width="30.6468" height="24.3211" filterUnits="userSpaceOnUse" color-interpolation-filters="sRGB">
<feFlood flood-opacity="0" result="BackgroundImageFix"/>
<feBlend mode="normal" in="SourceGraphic" in2="BackgroundImageFix" result="shape"/>
<feGaussianBlur stdDeviation="1.8774" result="effect1_foregroundBlur_118_713"/>
</filter>
<filter id="filter6_f_118_713" x="23.6196" y="262.414" width="85.9433" height="74.4128" filterUnits="userSpaceOnUse" color-interpolation-filters="sRGB">
<feFlood flood-opacity="0" result="BackgroundImageFix"/>
<feBlend mode="normal" in="SourceGraphic" in2="BackgroundImageFix" result="shape"/>
<feGaussianBlur stdDeviation="1.52538" result="effect1_foregroundBlur_118_713"/>
</filter>
<filter id="filter7_f_118_713" x="83.1353" y="275.91" width="20.3017" height="15.7682" filterUnits="userSpaceOnUse" color-interpolation-filters="sRGB">
<feFlood flood-opacity="0" result="BackgroundImageFix"/>
<feBlend mode="normal" in="SourceGraphic" in2="BackgroundImageFix" result="shape"/>
<feGaussianBlur stdDeviation="0.938698" result="effect1_foregroundBlur_118_713"/>
</filter>
<filter id="filter8_f_118_713" x="102.814" y="281.866" width="9.92715" height="8.23599" filterUnits="userSpaceOnUse" color-interpolation-filters="sRGB">
<feFlood flood-opacity="0" result="BackgroundImageFix"/>
<feBlend mode="normal" in="SourceGraphic" in2="BackgroundImageFix" result="shape"/>
<feGaussianBlur stdDeviation="0.938698" result="effect1_foregroundBlur_118_713"/>
</filter>
<filter id="filter9_f_118_713" x="457.332" y="318.278" width="80.5981" height="55.2302" filterUnits="userSpaceOnUse" color-interpolation-filters="sRGB">
<feFlood flood-opacity="0" result="BackgroundImageFix"/>
<feBlend mode="normal" in="SourceGraphic" in2="BackgroundImageFix" result="shape"/>
<feGaussianBlur stdDeviation="1.52538" result="effect1_foregroundBlur_118_713"/>
</filter>
<filter id="filter10_f_118_713" x="499.916" y="306.26" width="16.121" height="14.9416" filterUnits="userSpaceOnUse" color-interpolation-filters="sRGB">
<feFlood flood-opacity="0" result="BackgroundImageFix"/>
<feBlend mode="normal" in="SourceGraphic" in2="BackgroundImageFix" result="shape"/>
<feGaussianBlur stdDeviation="0.938698" result="effect1_foregroundBlur_118_713"/>
</filter>
<filter id="filter11_f_118_713" x="513.412" y="302.673" width="8.36758" height="7.92764" filterUnits="userSpaceOnUse" color-interpolation-filters="sRGB">
<feFlood flood-opacity="0" result="BackgroundImageFix"/>
<feBlend mode="normal" in="SourceGraphic" in2="BackgroundImageFix" result="shape"/>
<feGaussianBlur stdDeviation="0.938698" result="effect1_foregroundBlur_118_713"/>
</filter>
<filter id="filter12_f_118_713" x="460.174" y="164.14" width="102.985" height="88.9939" filterUnits="userSpaceOnUse" color-interpolation-filters="sRGB">
<feFlood flood-opacity="0" result="BackgroundImageFix"/>
<feBlend mode="normal" in="SourceGraphic" in2="BackgroundImageFix" result="shape"/>
<feGaussianBlur stdDeviation="1.52538" result="effect1_foregroundBlur_118_713"/>
</filter>
<filter id="filter13_f_118_713" x="532.143" y="180.267" width="23.8339" height="18.3324" filterUnits="userSpaceOnUse" color-interpolation-filters="sRGB">
<feFlood flood-opacity="0" result="BackgroundImageFix"/>
<feBlend mode="normal" in="SourceGraphic" in2="BackgroundImageFix" result="shape"/>
<feGaussianBlur stdDeviation="0.938698" result="effect1_foregroundBlur_118_713"/>
</filter>
<filter id="filter14_f_118_713" x="556.023" y="187.493" width="11.2445" height="9.19254" filterUnits="userSpaceOnUse" color-interpolation-filters="sRGB">
<feFlood flood-opacity="0" result="BackgroundImageFix"/>
<feBlend mode="normal" in="SourceGraphic" in2="BackgroundImageFix" result="shape"/>
<feGaussianBlur stdDeviation="0.938698" result="effect1_foregroundBlur_118_713"/>
</filter>
<filter id="filter15_f_118_713" x="24.4512" y="105.841" width="60.7929" height="47.8445" filterUnits="userSpaceOnUse" color-interpolation-filters="sRGB">
<feFlood flood-opacity="0" result="BackgroundImageFix"/>
<feBlend mode="normal" in="SourceGraphic" in2="BackgroundImageFix" result="shape"/>
<feGaussianBlur stdDeviation="1.52538" result="effect1_foregroundBlur_118_713"/>
</filter>
<filter id="filter16_f_118_713" x="52.1441" y="100.002" width="12.7802" height="13.4228" filterUnits="userSpaceOnUse" color-interpolation-filters="sRGB">
<feFlood flood-opacity="0" result="BackgroundImageFix"/>
<feBlend mode="normal" in="SourceGraphic" in2="BackgroundImageFix" result="shape"/>
<feGaussianBlur stdDeviation="0.938698" result="effect1_foregroundBlur_118_713"/>
</filter>
<filter id="filter17_f_118_713" x="60.8868" y="95.6236" width="7.121" height="7.36099" filterUnits="userSpaceOnUse" color-interpolation-filters="sRGB">
<feFlood flood-opacity="0" result="BackgroundImageFix"/>
<feBlend mode="normal" in="SourceGraphic" in2="BackgroundImageFix" result="shape"/>
<feGaussianBlur stdDeviation="0.938698" result="effect1_foregroundBlur_118_713"/>
</filter>
<filter id="filter18_f_118_713" x="518.337" y="424.015" width="59.6899" height="46.678" filterUnits="userSpaceOnUse" color-interpolation-filters="sRGB">
<feFlood flood-opacity="0" result="BackgroundImageFix"/>
<feBlend mode="normal" in="SourceGraphic" in2="BackgroundImageFix" result="shape"/>
<feGaussianBlur stdDeviation="1.52538" result="effect1_foregroundBlur_118_713"/>
</filter>
<filter id="filter19_f_118_713" x="556.328" y="426.574" width="14.2558" height="11.2462" filterUnits="userSpaceOnUse" color-interpolation-filters="sRGB">
<feFlood flood-opacity="0" result="BackgroundImageFix"/>
<feBlend mode="normal" in="SourceGraphic" in2="BackgroundImageFix" result="shape"/>
<feGaussianBlur stdDeviation="0.938698" result="effect1_foregroundBlur_118_713"/>
</filter>
<filter id="filter20_f_118_713" x="568.867" y="428.867" width="7.67178" height="6.54922" filterUnits="userSpaceOnUse" color-interpolation-filters="sRGB">
<feFlood flood-opacity="0" result="BackgroundImageFix"/>
<feBlend mode="normal" in="SourceGraphic" in2="BackgroundImageFix" result="shape"/>
<feGaussianBlur stdDeviation="0.938698" result="effect1_foregroundBlur_118_713"/>
</filter>
<linearGradient id="paint0_linear_118_713" x1="293.812" y1="291.222" x2="399.885" y2="139.153" gradientUnits="userSpaceOnUse">
<stop stop-color="#FEFEFE"/>
<stop offset="1" stop-color="#F7A3C5"/>
</linearGradient>
<linearGradient id="paint1_linear_118_713" x1="176.006" y1="291.222" x2="178.822" y2="69.6897" gradientUnits="userSpaceOnUse">
<stop stop-color="#FEFEFE"/>
<stop offset="0.355333" stop-color="#F7A3C5"/>
</linearGradient>
<linearGradient id="paint2_linear_118_713" x1="310.355" y1="19" x2="310.355" y2="563.445" gradientUnits="userSpaceOnUse">
<stop stop-color="#FFE354"/>
<stop offset="0.489583" stop-color="#A87A06"/>
<stop offset="1" stop-color="#FFE354"/>
</linearGradient>
<linearGradient id="paint3_linear_118_713" x1="355.297" y1="313.282" x2="592.871" y2="139.773" gradientUnits="userSpaceOnUse">
<stop offset="0.215466" stop-color="#FEF1F6"/>
<stop offset="1" stop-color="#FFE354"/>
</linearGradient>
<linearGradient id="paint4_linear_118_713" x1="221.827" y1="25.6784" x2="188.986" y2="314.718" gradientUnits="userSpaceOnUse">
<stop offset="0.0549126" stop-color="#FFE354"/>
<stop offset="0.546889" stop-color="#FDEDF3"/>
</linearGradient>
<linearGradient id="paint5_linear_118_713" x1="156.762" y1="439.681" x2="156.762" y2="389.786" gradientUnits="userSpaceOnUse">
<stop stop-color="#FFDF35"/>
<stop offset="0.442708" stop-color="#A87A06"/>
<stop offset="0.786458" stop-color="#FFDF35"/>
</linearGradient>
<linearGradient id="paint6_linear_118_713" x1="343.563" y1="439.681" x2="343.563" y2="389.786" gradientUnits="userSpaceOnUse">
<stop stop-color="#FFDF35"/>
<stop offset="0.442708" stop-color="#A87A06"/>
<stop offset="0.786458" stop-color="#FFDF35"/>
</linearGradient>
<linearGradient id="paint7_linear_118_713" x1="239.837" y1="557.606" x2="239.716" y2="744.613" gradientUnits="userSpaceOnUse">
<stop stop-color="#FECDDC"/>
<stop offset="1" stop-color="#D45C86"/>
</linearGradient>
<linearGradient id="paint8_linear_118_713" x1="153.778" y1="479.4" x2="111.577" y2="581.949" gradientUnits="userSpaceOnUse">
<stop offset="0.18" stop-color="#FEFCFD"/>
<stop offset="1" stop-color="white" stop-opacity="0"/>
</linearGradient>
<linearGradient id="paint9_linear_118_713" x1="31.7557" y1="0" x2="31.7557" y2="42.9172" gradientUnits="userSpaceOnUse">
<stop stop-color="#FBFFFF"/>
<stop offset="1" stop-color="white" stop-opacity="0"/>
</linearGradient>
<linearGradient id="paint10_linear_118_713" x1="66.5067" y1="292.488" x2="43.3546" y2="332.525" gradientUnits="userSpaceOnUse">
<stop stop-color="#FECDDC"/>
<stop offset="1" stop-color="#D45C86"/>
</linearGradient>
<linearGradient id="paint11_linear_118_713" x1="61.1675" y1="257.118" x2="36.4134" y2="275.181" gradientUnits="userSpaceOnUse">
<stop offset="0.18" stop-color="#FEFCFD"/>
<stop offset="1" stop-color="white" stop-opacity="0"/>
</linearGradient>
<linearGradient id="paint12_linear_118_713" x1="93.286" y1="277.857" x2="93.286" y2="289.731" gradientUnits="userSpaceOnUse">
<stop stop-color="#FBFFFF"/>
<stop offset="1" stop-color="white" stop-opacity="0"/>
</linearGradient>
<linearGradient id="paint13_linear_118_713" x1="497.547" y1="334.186" x2="507.284" y2="370.625" gradientUnits="userSpaceOnUse">
<stop stop-color="#FECDDC"/>
<stop offset="1" stop-color="#D45C86"/>
</linearGradient>
<linearGradient id="paint14_linear_118_713" x1="474.071" y1="316.869" x2="470.213" y2="341.56" gradientUnits="userSpaceOnUse">
<stop offset="0.18" stop-color="#FEFCFD"/>
<stop offset="1" stop-color="white" stop-opacity="0"/>
</linearGradient>
<linearGradient id="paint15_linear_118_713" x1="507.976" y1="308.889" x2="507.976" y2="318.572" gradientUnits="userSpaceOnUse">
<stop stop-color="#FBFFFF"/>
<stop offset="1" stop-color="white" stop-opacity="0"/>
</linearGradient>
<linearGradient id="paint16_linear_118_713" x1="511.564" y1="199.982" x2="483.47" y2="248.565" gradientUnits="userSpaceOnUse">
<stop stop-color="#FECDDC"/>
<stop offset="1" stop-color="#D45C86"/>
</linearGradient>
<linearGradient id="paint17_linear_118_713" x1="505.086" y1="157.062" x2="475.048" y2="178.981" gradientUnits="userSpaceOnUse">
<stop offset="0.18" stop-color="#FEFCFD"/>
<stop offset="1" stop-color="white" stop-opacity="0"/>
</linearGradient>
<linearGradient id="paint18_linear_118_713" x1="544.06" y1="182.229" x2="544.06" y2="196.637" gradientUnits="userSpaceOnUse">
<stop stop-color="#FBFFFF"/>
<stop offset="1" stop-color="white" stop-opacity="0"/>
</linearGradient>
<linearGradient id="paint19_linear_118_713" x1="54.7433" y1="124.527" x2="69.6833" y2="150.445" gradientUnits="userSpaceOnUse">
<stop stop-color="#FECDDC"/>
<stop offset="1" stop-color="#D45C86"/>
</linearGradient>
<linearGradient id="paint20_linear_118_713" x1="33.2034" y1="116.078" x2="35.3158" y2="135.786" gradientUnits="userSpaceOnUse">
<stop offset="0.18" stop-color="#FEFCFD"/>
<stop offset="1" stop-color="white" stop-opacity="0"/>
</linearGradient>
<linearGradient id="paint21_linear_118_713" x1="58.5341" y1="102.874" x2="58.5341" y2="110.554" gradientUnits="userSpaceOnUse">
<stop stop-color="#FBFFFF"/>
<stop offset="1" stop-color="white" stop-opacity="0"/>
</linearGradient>
<linearGradient id="paint22_linear_118_713" x1="547.618" y1="440.24" x2="537.113" y2="467.463" gradientUnits="userSpaceOnUse">
<stop stop-color="#FECDDC"/>
<stop offset="1" stop-color="#D45C86"/>
</linearGradient>
<linearGradient id="paint23_linear_118_713" x1="540.824" y1="418.719" x2="527.166" y2="432.403" gradientUnits="userSpaceOnUse">
<stop offset="0.18" stop-color="#FEFCFD"/>
<stop offset="1" stop-color="white" stop-opacity="0"/>
</linearGradient>
<linearGradient id="paint24_linear_118_713" x1="563.456" y1="428.451" x2="563.456" y2="435.943" gradientUnits="userSpaceOnUse">
<stop stop-color="#FBFFFF"/>
<stop offset="1" stop-color="white" stop-opacity="0"/>
</linearGradient>
</defs>
</svg>
