<svg width="601" height="600" viewBox="0 0 601 600" fill="none" xmlns="http://www.w3.org/2000/svg">
<path d="M74.0627 25.3127L61.8032 37.0788C41.0363 57.0097 41.4508 90.3472 62.7068 109.756L66.8862 113.572C87.0177 131.953 85.9136 164.16 64.9073 181.535V181.535C43.5572 199.195 43.2234 232.202 64.5735 249.862V249.862C85.6872 267.326 85.9633 299.603 65.1514 317.426L51.5627 329.063" stroke="url(#paint0_linear_118_86)" stroke-width="38.4375" stroke-linecap="round"/>
<path d="M153.75 25.3127L141.491 37.0788C120.724 57.0097 121.138 90.3472 142.394 109.756L146.574 113.572C166.705 131.953 165.601 164.16 144.595 181.535V181.535C123.245 199.195 122.911 232.202 144.261 249.862V249.862C165.375 267.326 165.651 299.603 144.839 317.426L131.25 329.063" stroke="url(#paint1_linear_118_86)" stroke-width="38.4375" stroke-linecap="round"/>
<path d="M312.188 25.3127L299.928 37.0788C279.161 57.0097 279.576 90.3472 300.832 109.756L305.011 113.572C325.142 131.953 324.038 164.16 303.032 181.535V181.535C281.682 199.195 281.348 232.202 302.698 249.862V249.862C323.812 267.326 324.088 299.603 303.276 317.426L289.688 329.063" stroke="url(#paint2_linear_118_86)" stroke-width="38.4375" stroke-linecap="round"/>
<path d="M467.813 25.3127L455.553 37.0788C434.786 57.0097 435.201 90.3472 456.457 109.756L460.636 113.572C480.767 131.953 479.663 164.16 458.657 181.535V181.535C437.307 199.195 436.973 232.202 458.323 249.862V249.862C479.437 267.326 479.713 299.603 458.901 317.426L445.313 329.063" stroke="url(#paint3_linear_118_86)" stroke-width="38.4375" stroke-linecap="round"/>
<path d="M229.688 25.3127L217.428 37.0788C196.661 57.0097 197.076 90.3472 218.332 109.756L222.511 113.572C242.643 131.953 241.539 164.16 220.532 181.535V181.535C199.182 199.195 198.848 232.202 220.199 249.862V249.862C241.312 267.326 241.588 299.603 220.776 317.426L207.188 329.063" stroke="url(#paint4_linear_118_86)" stroke-width="38.4375" stroke-linecap="round"/>
<path d="M386.25 25.3127L373.99 37.0788C353.224 57.0097 353.638 90.3472 374.894 109.756L379.073 113.572C399.205 131.953 398.101 164.16 377.095 181.535V181.535C355.744 199.195 355.411 232.202 376.761 249.862V249.862C397.874 267.326 398.151 299.603 377.339 317.426L363.75 329.063" stroke="url(#paint5_linear_118_86)" stroke-width="38.4375" stroke-linecap="round"/>
<path d="M549.375 25.3127L537.116 37.0788C516.349 57.0097 516.764 90.3472 538.02 109.756L542.199 113.572C562.33 131.953 561.226 164.16 540.22 181.535V181.535C518.87 199.195 518.536 232.202 539.886 249.862V249.862C561 267.326 561.276 299.603 540.464 317.426L526.875 329.063" stroke="url(#paint6_linear_118_86)" stroke-width="38.4375" stroke-linecap="round"/>
<path d="M431.323 334.673C423.798 330.086 415.41 325.505 406.164 321.173C406.758 318.019 407.278 314.855 407.769 311.865C407.975 310.614 408.175 309.395 408.374 308.219C409.593 301.007 410.726 295.613 412.259 292.165C415.898 283.975 419.026 283.424 420.377 283.379C423.156 283.285 428.12 285.129 435.654 291.335C448.884 302.234 464.004 321.32 479.829 341.295C481.565 343.487 483.31 345.69 485.062 347.894C493.721 358.786 502.47 369.578 510.846 378.557C519.067 387.37 527.645 395.236 536.064 399.521C540.359 401.707 545.204 403.272 550.319 403.1C555.688 402.919 560.59 400.843 564.665 397.054C572.149 390.096 576.388 377.805 578.891 361.791C583.373 333.106 573.393 306.358 556.763 283.602C540.162 260.884 516.522 241.515 492.129 226.957C467.757 212.411 441.977 202.277 420.661 198.508C410.057 196.634 399.932 196.22 391.418 198.073C382.831 199.942 374.677 204.462 370.749 213.3C361.271 234.627 352.085 264.364 348.863 290.576C348.407 294.287 348.063 297.981 347.859 301.615C329.166 297.607 308.511 295.179 285.901 295.179C284.702 295.179 283.514 295.185 282.338 295.199C273.614 279.077 260.68 258.318 242.678 232.008C233.027 217.903 220.322 209.633 205.864 206.13C191.667 202.691 176.326 203.967 161.173 207.827C130.992 215.514 99.0779 234.106 73.0494 252.089C46.4636 270.457 28.2816 291.463 22.263 312.278C19.1964 322.883 19.2707 333.581 23.276 343.527C27.2684 353.441 34.8287 361.773 45.2929 368.298C54.6967 374.163 64.3685 376.193 73.9698 374.936C83.3409 373.709 91.9553 369.446 99.7108 363.915C114.991 353.018 129.114 335.545 141.522 319.857C142.313 318.857 143.095 317.866 143.871 316.885C155.858 301.71 166.024 288.84 175.199 282.032C179.975 278.489 183.028 277.733 184.84 277.872C186.233 277.979 188.899 278.773 192.618 283.993C197.471 290.803 204.906 299.033 213.401 307.309C212.718 307.593 212.041 307.882 211.371 308.175C192.535 316.403 179.224 327.787 167.463 339.889C162.897 344.588 158.589 349.341 154.295 354.08C136.419 373.806 118.77 393.282 83.6315 407.516L80.7001 408.703L79.0871 411.424C47.8409 464.124 62.6572 530.374 106.707 556.775C129.146 570.224 158.461 576.038 189.295 578.664C216.021 580.94 244.91 580.879 272.789 580.82C277.189 580.811 281.564 580.802 285.901 580.802C293.629 580.802 301.952 580.956 310.705 581.117C337.362 581.61 368.01 582.176 397.98 578.697C438.038 574.046 478.751 562.05 509.922 531.868L511.134 530.695L511.861 529.173C530.841 489.437 522.405 450.287 509.995 421.973C503.765 407.757 496.417 395.976 490.637 387.752C487.74 383.63 485.219 380.377 483.401 378.13C482.492 377.006 481.757 376.132 481.237 375.526C481.105 375.371 480.986 375.234 480.882 375.114C480.782 374.999 480.696 374.9 480.624 374.818C480.577 374.765 480.536 374.718 480.501 374.679C480.462 374.633 480.417 374.579 480.364 374.517C480.21 374.335 479.993 374.083 479.714 373.765C479.157 373.13 478.35 372.231 477.295 371.108C475.185 368.862 472.078 365.714 467.973 361.966C459.766 354.473 447.549 344.562 431.323 334.673Z" fill="url(#paint7_linear_118_86)" stroke="url(#paint8_linear_118_86)" stroke-width="18.75"/>
<path d="M472.128 380.802C472.128 380.802 543.378 456.163 504.003 522.725C447.753 579.913 363.378 571.426 284.628 571.426C220.508 571.426 220.778 571.509 268.691 567.871C273.378 567.515 406.503 575.132 425.253 484.359C448.765 370.534 407.441 340.932 398.066 329.132C452.44 344.357 472.128 380.802 472.128 380.802Z" fill="#F8F6F6" fill-opacity="0.2"/>
<path d="M488.535 337.101L560.722 307.101C580.681 339.42 572.883 415.647 537.285 394.288C523.222 385.851 510.566 368.976 488.535 337.101Z" fill="url(#paint9_linear_118_86)"/>
<path d="M155.53 450.064C151.931 449.789 140.063 471.115 135.376 499.752C130.396 530.178 129.902 546.351 133.501 546.627C137.1 546.902 145.287 513.529 145.878 505.803C146.47 498.077 159.129 450.34 155.53 450.064Z" fill="url(#paint10_linear_118_86)" fill-opacity="0.5"/>
<path d="M372.104 383.865C375.703 383.589 387.73 406.995 392.625 438.343C397.826 471.65 398.436 489.339 394.836 489.614C391.237 489.89 382.807 453.337 382.16 444.885C381.513 436.432 368.505 384.14 372.104 383.865Z" fill="url(#paint11_linear_118_86)" fill-opacity="0.5"/>
<path d="M65.2536 269.601L130.878 318.351C110.254 347.414 77.4407 382.101 45.5657 358.663C8.48664 331.4 39.0032 291.164 65.2536 269.601Z" fill="url(#paint12_linear_118_86)"/>
<g filter="url(#filter0_d_118_86)">
<path d="M234.292 436.752C234.292 410.711 216.809 389.601 195.242 389.601C173.675 389.601 156.191 410.711 156.191 436.752C156.191 462.793 173.675 451.294 195.242 451.294C216.809 451.294 234.292 462.793 234.292 436.752Z" fill="url(#paint13_linear_118_86)"/>
<ellipse cx="30.8295" cy="30.1771" rx="30.8295" ry="30.1771" transform="matrix(1 0 0 -1 164.412 449.955)" fill="url(#paint14_linear_118_86)" fill-opacity="0.22"/>
<path d="M431.179 436.753C431.179 410.712 413.695 389.601 392.128 389.601C370.561 389.601 353.078 410.712 353.078 436.753C353.078 462.794 370.561 451.295 392.128 451.295C413.695 451.295 431.179 462.794 431.179 436.753Z" fill="url(#paint15_linear_118_86)"/>
<ellipse cx="30.8295" cy="30.1771" rx="30.8295" ry="30.1771" transform="matrix(1 0 0 -1 361.299 449.955)" fill="url(#paint16_linear_118_86)" fill-opacity="0.22"/>
</g>
<g filter="url(#filter1_d_118_86)">
<ellipse cx="171.191" cy="476.788" rx="47.8125" ry="38.4375" fill="url(#paint17_linear_118_86)"/>
</g>
<ellipse cx="150.435" cy="456.044" rx="18.8068" ry="11.7099" transform="rotate(-17.2313 150.435 456.044)" fill="white" fill-opacity="0.5"/>
<g filter="url(#filter2_d_118_86)">
<ellipse cx="423.378" cy="476.32" rx="47.8125" ry="38.9063" fill="url(#paint18_linear_118_86)"/>
</g>
<g filter="url(#filter3_d_118_86)">
<path d="M430.847 368.14C398.254 364.908 377.254 356.227 361.749 346.693C351.249 340.237 340.932 347.928 349.663 356.629C377.07 383.941 423.838 378.745 430.847 368.14Z" fill="url(#paint19_linear_118_86)"/>
</g>
<g filter="url(#filter4_d_118_86)">
<path d="M162.981 368.14C195.573 364.908 216.574 356.227 232.079 346.693C242.579 340.237 252.896 347.928 244.165 356.629C216.758 383.941 169.99 378.745 162.981 368.14Z" fill="url(#paint20_linear_118_86)"/>
</g>
<ellipse cx="435.083" cy="453.271" rx="18.8068" ry="11.7099" transform="rotate(25.5233 435.083 453.271)" fill="white" fill-opacity="0.5"/>
<ellipse cx="12.5873" cy="17.027" rx="12.5873" ry="17.027" transform="matrix(-0.0106939 -0.999943 0.999784 -0.0207771 370.21 420.169)" fill="url(#paint21_linear_118_86)" fill-opacity="0.5"/>
<ellipse cx="12.5873" cy="17.027" rx="12.5873" ry="17.027" transform="matrix(-0.0106939 -0.999943 0.999784 -0.0207771 183.647 421.476)" fill="url(#paint22_linear_118_86)" fill-opacity="0.5"/>
<defs>
<filter id="filter0_d_118_86" x="151.503" y="380.226" width="282.488" height="73.5984" filterUnits="userSpaceOnUse" color-interpolation-filters="sRGB">
<feFlood flood-opacity="0" result="BackgroundImageFix"/>
<feColorMatrix in="SourceAlpha" type="matrix" values="0 0 0 0 0 0 0 0 0 0 0 0 0 0 0 0 0 0 127 0" result="hardAlpha"/>
<feOffset dx="-0.9375" dy="-5.625"/>
<feGaussianBlur stdDeviation="1.875"/>
<feComposite in2="hardAlpha" operator="out"/>
<feColorMatrix type="matrix" values="0 0 0 0 0.22901 0 0 0 0 0.366944 0 0 0 0 0.11151 0 0 0 0.5 0"/>
<feBlend mode="normal" in2="BackgroundImageFix" result="effect1_dropShadow_118_86"/>
<feBlend mode="normal" in="SourceGraphic" in2="effect1_dropShadow_118_86" result="shape"/>
</filter>
<filter id="filter1_d_118_86" x="110.066" y="438.351" width="108.938" height="90.1875" filterUnits="userSpaceOnUse" color-interpolation-filters="sRGB">
<feFlood flood-opacity="0" result="BackgroundImageFix"/>
<feColorMatrix in="SourceAlpha" type="matrix" values="0 0 0 0 0 0 0 0 0 0 0 0 0 0 0 0 0 0 127 0" result="hardAlpha"/>
<feOffset dx="-7.5" dy="7.5"/>
<feGaussianBlur stdDeviation="2.90625"/>
<feComposite in2="hardAlpha" operator="out"/>
<feColorMatrix type="matrix" values="0 0 0 0 0.392157 0 0 0 0 0.603922 0 0 0 0 0.211765 0 0 0 0.15 0"/>
<feBlend mode="normal" in2="BackgroundImageFix" result="effect1_dropShadow_118_86"/>
<feBlend mode="normal" in="SourceGraphic" in2="effect1_dropShadow_118_86" result="shape"/>
</filter>
<filter id="filter2_d_118_86" x="375.566" y="437.413" width="108.094" height="90.2813" filterUnits="userSpaceOnUse" color-interpolation-filters="sRGB">
<feFlood flood-opacity="0" result="BackgroundImageFix"/>
<feColorMatrix in="SourceAlpha" type="matrix" values="0 0 0 0 0 0 0 0 0 0 0 0 0 0 0 0 0 0 127 0" result="hardAlpha"/>
<feOffset dx="7.5" dy="7.5"/>
<feGaussianBlur stdDeviation="2.48438"/>
<feComposite in2="hardAlpha" operator="out"/>
<feColorMatrix type="matrix" values="0 0 0 0 0.392157 0 0 0 0 0.603922 0 0 0 0 0.211765 0 0 0 0.15 0"/>
<feBlend mode="normal" in2="BackgroundImageFix" result="effect1_dropShadow_118_86"/>
<feBlend mode="normal" in="SourceGraphic" in2="effect1_dropShadow_118_86" result="shape"/>
</filter>
<filter id="filter3_d_118_86" x="341.696" y="344.295" width="93.8379" height="42.7209" filterUnits="userSpaceOnUse" color-interpolation-filters="sRGB">
<feFlood flood-opacity="0" result="BackgroundImageFix"/>
<feColorMatrix in="SourceAlpha" type="matrix" values="0 0 0 0 0 0 0 0 0 0 0 0 0 0 0 0 0 0 127 0" result="hardAlpha"/>
<feOffset dy="5.625"/>
<feGaussianBlur stdDeviation="2.34375"/>
<feComposite in2="hardAlpha" operator="out"/>
<feColorMatrix type="matrix" values="0 0 0 0 0 0 0 0 0 0 0 0 0 0 0 0 0 0 0.25 0"/>
<feBlend mode="normal" in2="BackgroundImageFix" result="effect1_dropShadow_118_86"/>
<feBlend mode="normal" in="SourceGraphic" in2="effect1_dropShadow_118_86" result="shape"/>
</filter>
<filter id="filter4_d_118_86" x="158.294" y="344.295" width="93.8379" height="42.7209" filterUnits="userSpaceOnUse" color-interpolation-filters="sRGB">
<feFlood flood-opacity="0" result="BackgroundImageFix"/>
<feColorMatrix in="SourceAlpha" type="matrix" values="0 0 0 0 0 0 0 0 0 0 0 0 0 0 0 0 0 0 127 0" result="hardAlpha"/>
<feOffset dy="5.625"/>
<feGaussianBlur stdDeviation="2.34375"/>
<feComposite in2="hardAlpha" operator="out"/>
<feColorMatrix type="matrix" values="0 0 0 0 0 0 0 0 0 0 0 0 0 0 0 0 0 0 0.25 0"/>
<feBlend mode="normal" in2="BackgroundImageFix" result="effect1_dropShadow_118_86"/>
<feBlend mode="normal" in="SourceGraphic" in2="effect1_dropShadow_118_86" result="shape"/>
</filter>
<linearGradient id="paint0_linear_118_86" x1="64.219" y1="25.3127" x2="64.219" y2="329.063" gradientUnits="userSpaceOnUse">
<stop offset="0.000333252" stop-color="#649A36"/>
<stop offset="0.585333" stop-color="#B3D596"/>
<stop offset="0.820333" stop-color="#649A36" stop-opacity="0"/>
</linearGradient>
<linearGradient id="paint1_linear_118_86" x1="143.906" y1="25.3127" x2="143.906" y2="329.063" gradientUnits="userSpaceOnUse">
<stop offset="0.000333252" stop-color="#649A36"/>
<stop offset="0.585333" stop-color="#B3D596"/>
<stop offset="0.820333" stop-color="#649A36" stop-opacity="0"/>
</linearGradient>
<linearGradient id="paint2_linear_118_86" x1="302.344" y1="25.3127" x2="302.344" y2="329.063" gradientUnits="userSpaceOnUse">
<stop offset="0.000333252" stop-color="#649A36"/>
<stop offset="0.585333" stop-color="#B3D596"/>
<stop offset="0.820333" stop-color="#649A36" stop-opacity="0"/>
</linearGradient>
<linearGradient id="paint3_linear_118_86" x1="457.969" y1="25.3127" x2="457.969" y2="329.063" gradientUnits="userSpaceOnUse">
<stop offset="0.000333252" stop-color="#649A36"/>
<stop offset="0.585333" stop-color="#B3D596"/>
<stop offset="0.820333" stop-color="#649A36" stop-opacity="0"/>
</linearGradient>
<linearGradient id="paint4_linear_118_86" x1="219.844" y1="25.3127" x2="219.844" y2="329.063" gradientUnits="userSpaceOnUse">
<stop offset="0.000333252" stop-color="#649A36"/>
<stop offset="0.585333" stop-color="#B3D596"/>
<stop offset="0.820333" stop-color="#649A36" stop-opacity="0"/>
</linearGradient>
<linearGradient id="paint5_linear_118_86" x1="376.406" y1="25.3127" x2="376.406" y2="329.063" gradientUnits="userSpaceOnUse">
<stop offset="0.000333252" stop-color="#649A36"/>
<stop offset="0.585333" stop-color="#B3D596"/>
<stop offset="0.820333" stop-color="#649A36" stop-opacity="0"/>
</linearGradient>
<linearGradient id="paint6_linear_118_86" x1="539.532" y1="25.3127" x2="539.532" y2="329.063" gradientUnits="userSpaceOnUse">
<stop offset="0.000333252" stop-color="#649A36"/>
<stop offset="0.585333" stop-color="#B3D596"/>
<stop offset="0.820333" stop-color="#649A36" stop-opacity="0"/>
</linearGradient>
<linearGradient id="paint7_linear_118_86" x1="300.031" y1="206.25" x2="300.031" y2="572.112" gradientUnits="userSpaceOnUse">
<stop offset="0.135333" stop-color="#4F9D0E"/>
<stop offset="0.530333" stop-color="#B3D597"/>
<stop offset="0.796875" stop-color="white"/>
</linearGradient>
<linearGradient id="paint8_linear_118_86" x1="299.443" y1="206.25" x2="299.443" y2="572.112" gradientUnits="userSpaceOnUse">
<stop stop-color="#FFE354"/>
<stop offset="0.608993" stop-color="#A87A06"/>
<stop offset="1" stop-color="#FFE354"/>
</linearGradient>
<linearGradient id="paint9_linear_118_86" x1="565.033" y1="393.922" x2="540.182" y2="313.896" gradientUnits="userSpaceOnUse">
<stop stop-color="#DAB028"/>
<stop offset="0.585333" stop-color="#FFE354"/>
</linearGradient>
<linearGradient id="paint10_linear_118_86" x1="154.316" y1="448.663" x2="138.379" y2="517.101" gradientUnits="userSpaceOnUse">
<stop offset="0.140291" stop-color="white" stop-opacity="0"/>
<stop offset="1" stop-color="white"/>
</linearGradient>
<linearGradient id="paint11_linear_118_86" x1="373.309" y1="382.342" x2="391.756" y2="456.794" gradientUnits="userSpaceOnUse">
<stop offset="0.140291" stop-color="white" stop-opacity="0"/>
<stop offset="1" stop-color="white"/>
</linearGradient>
<linearGradient id="paint12_linear_118_86" x1="46.4178" y1="359.298" x2="96.0778" y2="292.525" gradientUnits="userSpaceOnUse">
<stop stop-color="#D7AB25"/>
<stop offset="0.547222" stop-color="#FEE14B"/>
</linearGradient>
<linearGradient id="paint13_linear_118_86" x1="195.242" y1="483.904" x2="195.242" y2="389.601" gradientUnits="userSpaceOnUse">
<stop stop-color="#222222"/>
<stop offset="1" stop-color="#726C6C"/>
</linearGradient>
<linearGradient id="paint14_linear_118_86" x1="30.8295" y1="0" x2="30.8295" y2="60.3542" gradientUnits="userSpaceOnUse">
<stop stop-color="#FFE354" stop-opacity="0"/>
<stop offset="0.755208" stop-color="#FFE354"/>
</linearGradient>
<linearGradient id="paint15_linear_118_86" x1="392.128" y1="483.904" x2="392.128" y2="389.601" gradientUnits="userSpaceOnUse">
<stop stop-color="#222222"/>
<stop offset="1" stop-color="#726C6C"/>
</linearGradient>
<linearGradient id="paint16_linear_118_86" x1="30.8295" y1="0" x2="30.8295" y2="60.3542" gradientUnits="userSpaceOnUse">
<stop stop-color="#FFE354" stop-opacity="0"/>
<stop offset="0.755208" stop-color="#FFE354"/>
</linearGradient>
<linearGradient id="paint17_linear_118_86" x1="171.191" y1="438.351" x2="166.035" y2="499.288" gradientUnits="userSpaceOnUse">
<stop stop-color="#D4E7C4"/>
<stop offset="0.315" stop-color="#E4F0D9"/>
<stop offset="1" stop-color="white"/>
</linearGradient>
<linearGradient id="paint18_linear_118_86" x1="423.378" y1="437.413" x2="423.378" y2="515.226" gradientUnits="userSpaceOnUse">
<stop stop-color="#D4E7C4"/>
<stop offset="0.315" stop-color="#E4F0D9"/>
<stop offset="0.771525" stop-color="white"/>
</linearGradient>
<linearGradient id="paint19_linear_118_86" x1="348.291" y1="311.663" x2="409.599" y2="386.103" gradientUnits="userSpaceOnUse">
<stop stop-color="#3D7C07"/>
<stop offset="1" stop-color="#AFD291"/>
</linearGradient>
<linearGradient id="paint20_linear_118_86" x1="245.537" y1="311.663" x2="184.228" y2="386.103" gradientUnits="userSpaceOnUse">
<stop stop-color="#3D7C07"/>
<stop offset="1" stop-color="#AFD291"/>
</linearGradient>
<linearGradient id="paint21_linear_118_86" x1="25.1745" y1="17.027" x2="0" y2="17.027" gradientUnits="userSpaceOnUse">
<stop stop-color="white"/>
<stop offset="1" stop-color="#999999" stop-opacity="0"/>
</linearGradient>
<linearGradient id="paint22_linear_118_86" x1="25.1745" y1="17.027" x2="0" y2="17.027" gradientUnits="userSpaceOnUse">
<stop stop-color="white"/>
<stop offset="1" stop-color="#999999" stop-opacity="0"/>
</linearGradient>
</defs>
</svg>
